<?xml version="1.0" encoding="UTF-8"?>
<!DOCTYPE svg PUBLIC "-//W3C//DTD SVG 1.1//EN" "http://www.w3.org/Graphics/SVG/1.1/DTD/svg11.dtd">
<svg xmlns="http://www.w3.org/2000/svg" version="1.1" width="512px" height="512px" style="shape-rendering:geometricPrecision; text-rendering:geometricPrecision; image-rendering:optimizeQuality; fill-rule:evenodd; clip-rule:evenodd" xmlns:xlink="http://www.w3.org/1999/xlink">
<g><path style="opacity:0.992" fill="#47477e" d="M 398.5,64.5 C 393.996,68.8443 391.663,74.1776 391.5,80.5C 378.167,80.5 364.833,80.5 351.5,80.5C 350.507,68.1733 343.84,61.5067 331.5,60.5C 319.16,61.5067 312.493,68.1733 311.5,80.5C 298.167,80.5 284.833,80.5 271.5,80.5C 270.507,68.1733 263.84,61.5067 251.5,60.5C 239.16,61.5067 232.493,68.1733 231.5,80.5C 218.167,80.5 204.833,80.5 191.5,80.5C 190.507,68.1733 183.84,61.5067 171.5,60.5C 159.16,61.5067 152.493,68.1733 151.5,80.5C 138.167,80.5 124.833,80.5 111.5,80.5C 110.897,69.925 105.564,63.2583 95.5,60.5C 159.305,13.5793 229.971,-0.587343 307.5,18C 341.292,27.2271 371.625,42.7271 398.5,64.5 Z"/></g>
<g><path style="opacity:0.989" fill="#fedc40" d="M 95.5,60.5 C 105.564,63.2583 110.897,69.925 111.5,80.5C 111.5,82.1667 111.5,83.8333 111.5,85.5C 104.851,100.108 94.1845,103.941 79.5,97C 76.1608,93.5179 73.4942,89.6845 71.5,85.5C 71.5,84.1667 71.5,82.8333 71.5,81.5C 78.8823,73.7837 86.8823,66.7837 95.5,60.5 Z"/></g>
<g><path style="opacity:0.989" fill="#fedc40" d="M 431.5,80.5 C 431.5,82.1667 431.5,83.8333 431.5,85.5C 424.851,100.108 414.184,103.941 399.5,97C 396.161,93.5179 393.494,89.6845 391.5,85.5C 391.5,83.8333 391.5,82.1667 391.5,80.5C 391.663,74.1776 393.996,68.8443 398.5,64.5C 404.567,60.6496 411.233,59.4829 418.5,61C 427.039,64.704 431.372,71.204 431.5,80.5 Z"/></g>
<g><path style="opacity:1" fill="#fddb40" d="M 191.5,80.5 C 191.5,82.1667 191.5,83.8333 191.5,85.5C 184.851,100.108 174.184,103.941 159.5,97C 156.161,93.5179 153.494,89.6845 151.5,85.5C 151.5,83.8333 151.5,82.1667 151.5,80.5C 152.493,68.1733 159.16,61.5067 171.5,60.5C 183.84,61.5067 190.507,68.1733 191.5,80.5 Z"/></g>
<g><path style="opacity:1" fill="#fddb40" d="M 271.5,80.5 C 271.5,82.1667 271.5,83.8333 271.5,85.5C 264.851,100.108 254.184,103.941 239.5,97C 236.161,93.5179 233.494,89.6845 231.5,85.5C 231.5,83.8333 231.5,82.1667 231.5,80.5C 232.493,68.1733 239.16,61.5067 251.5,60.5C 263.84,61.5067 270.507,68.1733 271.5,80.5 Z"/></g>
<g><path style="opacity:1" fill="#fddb40" d="M 351.5,80.5 C 351.5,82.1667 351.5,83.8333 351.5,85.5C 344.851,100.108 334.184,103.941 319.5,97C 316.161,93.5179 313.494,89.6845 311.5,85.5C 311.5,83.8333 311.5,82.1667 311.5,80.5C 312.493,68.1733 319.16,61.5067 331.5,60.5C 343.84,61.5067 350.507,68.1733 351.5,80.5 Z"/></g>
<g><path style="opacity:1" fill="#e80153" d="M 111.5,80.5 C 124.833,80.5 138.167,80.5 151.5,80.5C 151.5,82.1667 151.5,83.8333 151.5,85.5C 151.333,98.8375 151.5,112.171 152,125.5C 154.492,133.826 159.992,138.826 168.5,140.5C 159.288,147.126 159.288,153.793 168.5,160.5C 162.5,160.5 156.5,160.5 150.5,160.5C 106.5,160.5 62.5,160.5 18.5,160.5C 30.4576,130.226 48.1243,103.893 71.5,81.5C 71.5,82.8333 71.5,84.1667 71.5,85.5C 71.0514,99.9058 71.5514,114.239 73,128.5C 79.6351,140.045 89.1351,143.212 101.5,138C 105.388,135.778 108.221,132.612 110,128.5C 111.449,114.239 111.949,99.9058 111.5,85.5C 111.5,83.8333 111.5,82.1667 111.5,80.5 Z"/></g>
<g><path style="opacity:1" fill="#fe4154" d="M 191.5,80.5 C 204.833,80.5 218.167,80.5 231.5,80.5C 231.5,82.1667 231.5,83.8333 231.5,85.5C 231.051,99.9058 231.551,114.239 233,128.5C 240.406,140.854 250.572,143.687 263.5,137C 266.433,134.736 268.6,131.902 270,128.5C 271.449,114.239 271.949,99.9058 271.5,85.5C 271.5,83.8333 271.5,82.1667 271.5,80.5C 284.833,80.5 298.167,80.5 311.5,80.5C 311.5,82.1667 311.5,83.8333 311.5,85.5C 311.051,99.9058 311.551,114.239 313,128.5C 320.406,140.854 330.572,143.687 343.5,137C 346.433,134.736 348.6,131.902 350,128.5C 351.449,114.239 351.949,99.9058 351.5,85.5C 351.5,83.8333 351.5,82.1667 351.5,80.5C 364.833,80.5 378.167,80.5 391.5,80.5C 391.5,82.1667 391.5,83.8333 391.5,85.5C 391.051,99.9058 391.551,114.239 393,128.5C 400.406,140.854 410.572,143.687 423.5,137C 426.433,134.736 428.6,131.902 430,128.5C 431.449,114.239 431.949,99.9058 431.5,85.5C 431.5,83.8333 431.5,82.1667 431.5,80.5C 453.836,80.3334 476.169,80.5 498.5,81C 504.685,83.3531 509.018,87.5198 511.5,93.5C 511.5,115.833 511.5,138.167 511.5,160.5C 498.167,160.5 484.833,160.5 471.5,160.5C 370.5,160.5 269.5,160.5 168.5,160.5C 159.288,153.793 159.288,147.126 168.5,140.5C 178.412,141.297 185.578,137.297 190,128.5C 191.449,114.239 191.949,99.9058 191.5,85.5C 191.5,83.8333 191.5,82.1667 191.5,80.5 Z"/></g>
<g><path style="opacity:1" fill="#fec739" d="M 71.5,85.5 C 73.4942,89.6845 76.1608,93.5179 79.5,97C 94.1845,103.941 104.851,100.108 111.5,85.5C 111.949,99.9058 111.449,114.239 110,128.5C 108.221,132.612 105.388,135.778 101.5,138C 89.1351,143.212 79.6351,140.045 73,128.5C 71.5514,114.239 71.0514,99.9058 71.5,85.5 Z"/></g>
<g><path style="opacity:1" fill="#fec739" d="M 151.5,85.5 C 153.494,89.6845 156.161,93.5179 159.5,97C 174.184,103.941 184.851,100.108 191.5,85.5C 191.949,99.9058 191.449,114.239 190,128.5C 185.578,137.297 178.412,141.297 168.5,140.5C 159.992,138.826 154.492,133.826 152,125.5C 151.5,112.171 151.333,98.8375 151.5,85.5 Z"/></g>
<g><path style="opacity:1" fill="#ffc739" d="M 231.5,85.5 C 233.494,89.6845 236.161,93.5179 239.5,97C 254.184,103.941 264.851,100.108 271.5,85.5C 271.949,99.9058 271.449,114.239 270,128.5C 268.6,131.902 266.433,134.736 263.5,137C 250.572,143.687 240.406,140.854 233,128.5C 231.551,114.239 231.051,99.9058 231.5,85.5 Z"/></g>
<g><path style="opacity:1" fill="#ffc739" d="M 311.5,85.5 C 313.494,89.6845 316.161,93.5179 319.5,97C 334.184,103.941 344.851,100.108 351.5,85.5C 351.949,99.9058 351.449,114.239 350,128.5C 348.6,131.902 346.433,134.736 343.5,137C 330.572,143.687 320.406,140.854 313,128.5C 311.551,114.239 311.051,99.9058 311.5,85.5 Z"/></g>
<g><path style="opacity:1" fill="#ffc739" d="M 391.5,85.5 C 393.494,89.6845 396.161,93.5179 399.5,97C 414.184,103.941 424.851,100.108 431.5,85.5C 431.949,99.9058 431.449,114.239 430,128.5C 428.6,131.902 426.433,134.736 423.5,137C 410.572,143.687 400.406,140.854 393,128.5C 391.551,114.239 391.051,99.9058 391.5,85.5 Z"/></g>
<g><path style="opacity:1" fill="#d3dbfa" d="M 18.5,160.5 C 62.5,160.5 106.5,160.5 150.5,160.5C 150.5,170.5 150.5,180.5 150.5,190.5C 159.839,190.334 169.173,190.5 178.5,191C 181.333,192.5 183.5,194.667 185,197.5C 185.667,212.167 185.667,226.833 185,241.5C 183.895,244.937 181.728,247.437 178.5,249C 173.845,249.499 169.179,249.666 164.5,249.5C 166.217,254.602 168.217,259.602 170.5,264.5C 153.83,264.333 137.163,264.5 120.5,265C 119,266.5 117.5,268 116,269.5C 114.864,277.401 114.364,285.401 114.5,293.5C 114.667,300.833 114.833,308.167 115,315.5C 116.263,319.219 118.763,321.719 122.5,323C 140.833,323.667 159.167,323.667 177.5,323C 181.77,321.73 184.27,318.896 185,314.5C 185.5,305.84 185.666,297.173 185.5,288.5C 190.083,293.949 194.916,299.283 200,304.5C 200.333,293.167 200.667,281.833 201,270.5C 201.785,268.714 202.951,267.214 204.5,266C 214.739,264.856 225.072,264.356 235.5,264.5C 245.928,264.356 256.261,264.856 266.5,266C 268.049,267.214 269.215,268.714 270,270.5C 270.954,286.567 270.621,302.567 269,318.5C 267.442,320.359 265.609,321.859 263.5,323C 249.5,323.333 235.5,323.667 221.5,324C 227.826,328.831 234.492,333.165 241.5,337C 248.679,337.171 255.679,337.671 262.5,338.5C 243.074,338.025 223.741,338.525 204.5,340C 202.951,341.214 201.785,342.714 201,344.5C 200.046,360.567 200.379,376.567 202,392.5C 203.214,394.049 204.714,395.215 206.5,396C 226.565,396.964 246.565,396.63 266.5,395C 268.487,393.681 269.654,391.848 270,389.5C 270.5,376.504 270.667,363.504 270.5,350.5C 275.365,352.3 280.365,353.633 285.5,354.5C 283.984,347.795 285.984,342.629 291.5,339C 311.167,338.333 330.833,338.333 350.5,339C 353.381,340.251 355.214,342.417 356,345.5C 356.499,350.489 356.666,355.489 356.5,360.5C 341.83,360.667 327.163,360.5 312.5,360C 303.405,358.929 294.405,357.429 285.5,355.5C 285.333,366.838 285.5,378.172 286,389.5C 286.786,392.583 288.619,394.749 291.5,396C 310.833,396.667 330.167,396.667 349.5,396C 350.527,395.487 351.527,394.987 352.5,394.5C 351.582,400.775 351.249,407.108 351.5,413.5C 350.527,413.013 349.527,412.513 348.5,412C 329.833,411.333 311.167,411.333 292.5,412C 289.667,413.5 287.5,415.667 286,418.5C 285.333,433.167 285.333,447.833 286,462.5C 287.077,465.913 289.244,468.413 292.5,470C 312.21,470.809 331.877,470.642 351.5,469.5C 351.5,479.833 351.5,490.167 351.5,500.5C 305.144,500.948 258.811,500.448 212.5,499C 181.907,494.969 153.24,485.469 126.5,470.5C 143.837,470.667 161.17,470.5 178.5,470C 180.624,468.878 182.457,467.378 184,465.5C 185.635,449.926 185.968,434.259 185,418.5C 183.437,415.272 180.937,413.105 177.5,412C 159.167,411.333 140.833,411.333 122.5,412C 119.063,413.105 116.563,415.272 115,418.5C 114.198,433.878 114.365,449.211 115.5,464.5C 109.269,461.225 103.603,457.225 98.5,452.5C 99.6595,441.007 99.8261,429.341 99,417.5C 97.7494,414.619 95.5827,412.786 92.5,412C 86.5,411.833 80.5,411.667 74.5,411.5C 68.1275,411.504 62.1275,412.171 56.5,413.5C 51.4821,407.81 46.8154,401.81 42.5,395.5C 51.2883,396.139 60.1217,396.472 69,396.5C 77.9301,396.64 86.7635,396.14 95.5,395C 97.0488,393.786 98.2155,392.286 99,390.5C 99.6667,374.833 99.6667,359.167 99,343.5C 97.5,342 96,340.5 94.5,339C 74.8333,338.333 55.1667,338.333 35.5,339C 33,340.167 31.1667,342 30,344.5C 29.5002,354.161 29.3335,363.828 29.5,373.5C 12.8491,343.549 2.84905,311.549 -0.5,277.5C -0.5,262.833 -0.5,248.167 -0.5,233.5C 1.91716,208.165 8.2505,183.832 18.5,160.5 Z"/></g>
<g><path style="opacity:1" fill="#e8eefe" d="M 150.5,160.5 C 156.5,160.5 162.5,160.5 168.5,160.5C 269.5,160.5 370.5,160.5 471.5,160.5C 471.5,227.167 471.5,293.833 471.5,360.5C 461.5,360.5 451.5,360.5 441.5,360.5C 441.666,355.156 441.499,349.823 441,344.5C 440.215,342.714 439.049,341.214 437.5,340C 427.094,338.856 416.594,338.356 406,338.5C 396.167,338.667 386.333,338.833 376.5,339C 375,340.5 373.5,342 372,343.5C 371.501,349.157 371.334,354.824 371.5,360.5C 366.5,360.5 361.5,360.5 356.5,360.5C 356.666,355.489 356.499,350.489 356,345.5C 355.214,342.417 353.381,340.251 350.5,339C 330.833,338.333 311.167,338.333 291.5,339C 285.984,342.629 283.984,347.795 285.5,354.5C 280.365,353.633 275.365,352.3 270.5,350.5C 271.309,344.104 268.642,340.104 262.5,338.5C 255.679,337.671 248.679,337.171 241.5,337C 234.492,333.165 227.826,328.831 221.5,324C 235.5,323.667 249.5,323.333 263.5,323C 265.609,321.859 267.442,320.359 269,318.5C 270.621,302.567 270.954,286.567 270,270.5C 269.215,268.714 268.049,267.214 266.5,266C 256.261,264.856 245.928,264.356 235.5,264.5C 225.072,264.356 214.739,264.856 204.5,266C 202.951,267.214 201.785,268.714 201,270.5C 200.667,281.833 200.333,293.167 200,304.5C 194.916,299.283 190.083,293.949 185.5,288.5C 185.5,287.833 185.5,287.167 185.5,286.5C 185.666,281.489 185.499,276.489 185,271.5C 182.316,265.906 177.816,263.573 171.5,264.5C 171.167,264.5 170.833,264.5 170.5,264.5C 168.217,259.602 166.217,254.602 164.5,249.5C 169.179,249.666 173.845,249.499 178.5,249C 181.728,247.437 183.895,244.937 185,241.5C 185.667,226.833 185.667,212.167 185,197.5C 183.5,194.667 181.333,192.5 178.5,191C 169.173,190.5 159.839,190.334 150.5,190.5C 150.5,180.5 150.5,170.5 150.5,160.5 Z"/></g>
<g><path style="opacity:1" fill="#bec8f7" d="M 471.5,160.5 C 484.833,160.5 498.167,160.5 511.5,160.5C 511.5,269.5 511.5,378.5 511.5,487.5C 509.018,493.48 504.685,497.647 498.5,500C 453.501,500.5 408.501,500.667 363.5,500.5C 418.962,491.546 454.128,459.879 469,405.5C 470.709,397.25 471.542,388.916 471.5,380.5C 471.5,373.833 471.5,367.167 471.5,360.5C 471.5,293.833 471.5,227.167 471.5,160.5 Z"/></g>
<g><path style="opacity:1" fill="#bec8f7" d="M 36.5,190.5 C 56.2344,190.037 75.901,190.537 95.5,192C 97.0488,193.214 98.2155,194.714 99,196.5C 99.9696,212.925 99.6363,229.259 98,245.5C 96.4207,247.041 94.5873,248.208 92.5,249C 73.0767,249.975 53.7434,249.641 34.5,248C 32.1898,246.363 30.6898,244.196 30,241.5C 29.3333,226.833 29.3333,212.167 30,197.5C 31.0183,193.985 33.1849,191.652 36.5,190.5 Z"/></g>
<g><path style="opacity:1" fill="#bec8f7" d="M 150.5,190.5 C 151.677,210.543 156.011,229.876 163.5,248.5C 149.512,249.666 135.512,249.833 121.5,249C 118.272,247.437 116.105,244.937 115,241.5C 114.333,226.833 114.333,212.167 115,197.5C 116.5,194.667 118.667,192.5 121.5,191C 131.161,190.5 140.828,190.334 150.5,190.5 Z"/></g>
<g><path style="opacity:1" fill="#d3dcfb" d="M 206.5,190.5 C 225.503,190.333 244.503,190.5 263.5,191C 266.583,191.786 268.749,193.619 270,196.5C 270.667,211.833 270.667,227.167 270,242.5C 268.833,245.667 266.667,247.833 263.5,249C 244.833,249.667 226.167,249.667 207.5,249C 204.333,247.833 202.167,245.667 201,242.5C 200.333,227.167 200.333,211.833 201,196.5C 202.36,193.977 204.193,191.977 206.5,190.5 Z"/></g>
<g><path style="opacity:1" fill="#d3dcfb" d="M 292.5,190.5 C 312.234,190.037 331.901,190.537 351.5,192C 353.617,193.731 355.117,195.898 356,198.5C 356.667,212.833 356.667,227.167 356,241.5C 354.833,245.333 352.333,247.833 348.5,249C 329.077,249.975 309.743,249.641 290.5,248C 288.622,246.457 287.122,244.624 286,242.5C 285.333,227.5 285.333,212.5 286,197.5C 287.694,194.642 289.861,192.309 292.5,190.5 Z"/></g>
<g><path style="opacity:1" fill="#d3dcfb" d="M 377.5,190.5 C 396.17,190.333 414.836,190.5 433.5,191C 437.02,191.504 439.52,193.337 441,196.5C 441.969,212.592 441.636,228.592 440,244.5C 438.363,246.81 436.196,248.31 433.5,249C 415.167,249.667 396.833,249.667 378.5,249C 375.417,248.214 373.251,246.381 372,243.5C 371.333,227.833 371.333,212.167 372,196.5C 373.36,193.977 375.193,191.977 377.5,190.5 Z"/></g>
<g><path style="opacity:1" fill="#bec8f7" d="M 35.5,264.5 C 55.5923,264.024 75.5923,264.524 95.5,266C 96.6667,267.167 97.8333,268.333 99,269.5C 99.9696,285.925 99.6363,302.259 98,318.5C 96.8333,319.667 95.6667,320.833 94.5,322C 74.5,322.667 54.5,322.667 34.5,322C 32.1898,320.363 30.6898,318.196 30,315.5C 29.3333,300.5 29.3333,285.5 30,270.5C 31.3597,267.977 33.193,265.977 35.5,264.5 Z"/></g>
<g><path style="opacity:1" fill="#bec8f7" d="M 170.5,264.5 C 170.833,264.5 171.167,264.5 171.5,264.5C 174.99,272.641 179.657,279.975 185.5,286.5C 185.5,287.167 185.5,287.833 185.5,288.5C 185.666,297.173 185.5,305.84 185,314.5C 184.27,318.896 181.77,321.73 177.5,323C 159.167,323.667 140.833,323.667 122.5,323C 118.763,321.719 116.263,319.219 115,315.5C 114.833,308.167 114.667,300.833 114.5,293.5C 114.364,285.401 114.864,277.401 116,269.5C 117.5,268 119,266.5 120.5,265C 137.163,264.5 153.83,264.333 170.5,264.5 Z"/></g>
<g><path style="opacity:1" fill="#d3dcfb" d="M 171.5,264.5 C 177.816,263.573 182.316,265.906 185,271.5C 185.499,276.489 185.666,281.489 185.5,286.5C 179.657,279.975 174.99,272.641 171.5,264.5 Z"/></g>
<g><path style="opacity:1" fill="#e80a55" d="M 333.5,281.5 C 319.295,280.604 314.128,286.937 318,300.5C 322.132,305.048 327.299,306.715 333.5,305.5C 333.897,310.959 333.397,316.292 332,321.5C 331.25,322.126 330.416,322.626 329.5,323C 323.5,323.667 317.5,323.667 311.5,323C 310.667,322.167 309.833,321.333 309,320.5C 308.501,315.845 308.334,311.179 308.5,306.5C 303.372,306.888 298.372,306.388 293.5,305C 293,304.5 292.5,304 292,303.5C 291.333,296.833 291.333,290.167 292,283.5C 292.5,283 293,282.5 293.5,282C 298.489,281.501 303.489,281.334 308.5,281.5C 308.334,276.489 308.501,271.489 309,266.5C 309.5,266 310,265.5 310.5,265C 317.747,264.188 324.914,264.354 332,265.5C 333.397,270.708 333.897,276.041 333.5,281.5 Z"/></g>
<g><path style="opacity:1" fill="#d3dcfb" d="M 377.5,264.5 C 397.592,264.024 417.592,264.524 437.5,266C 439.041,267.579 440.208,269.413 441,271.5C 441.953,287.234 441.62,302.901 440,318.5C 438.048,320.894 435.548,322.394 432.5,323C 413.743,323.974 395.076,323.64 376.5,322C 374.622,320.457 373.122,318.624 372,316.5C 371.333,301.167 371.333,285.833 372,270.5C 373.36,267.977 375.193,265.977 377.5,264.5 Z"/></g>
<g><path style="opacity:1" fill="#fe4256" d="M 333.5,281.5 C 338.179,281.334 342.845,281.501 347.5,282C 348.333,282.833 349.167,283.667 350,284.5C 350.667,290.5 350.667,296.5 350,302.5C 349.626,303.416 349.126,304.25 348.5,305C 343.511,305.499 338.511,305.666 333.5,305.5C 327.299,306.715 322.132,305.048 318,300.5C 314.128,286.937 319.295,280.604 333.5,281.5 Z"/></g>
<g><path style="opacity:1" fill="#bec8f7" d="M 200.5,305.5 C 206.33,311.162 212.33,316.662 218.5,322C 204.715,325.05 198.715,319.55 200.5,305.5 Z"/></g>
<g><path style="opacity:1" fill="#bec8f7" d="M 42.5,395.5 C 37.6512,388.469 33.3178,381.135 29.5,373.5C 29.3335,363.828 29.5002,354.161 30,344.5C 31.1667,342 33,340.167 35.5,339C 55.1667,338.333 74.8333,338.333 94.5,339C 96,340.5 97.5,342 99,343.5C 99.6667,359.167 99.6667,374.833 99,390.5C 98.2155,392.286 97.0488,393.786 95.5,395C 86.7635,396.14 77.9301,396.64 69,396.5C 60.1217,396.472 51.2883,396.139 42.5,395.5 Z"/></g>
<g><path style="opacity:1" fill="#bec8f7" d="M 120.5,338.5 C 140.925,338.024 161.259,338.524 181.5,340C 182.787,341.41 183.954,342.91 185,344.5C 185.667,359.5 185.667,374.5 185,389.5C 184.167,393 182,395.167 178.5,396C 159.167,396.667 139.833,396.667 120.5,396C 118.291,394.127 116.458,391.96 115,389.5C 114.333,374.833 114.333,360.167 115,345.5C 115.967,342.379 117.8,340.046 120.5,338.5 Z"/></g>
<g><path style="opacity:1" fill="#bec8f7" d="M 262.5,338.5 C 268.642,340.104 271.309,344.104 270.5,350.5C 270.667,363.504 270.5,376.504 270,389.5C 269.654,391.848 268.487,393.681 266.5,395C 246.565,396.63 226.565,396.964 206.5,396C 204.714,395.215 203.214,394.049 202,392.5C 200.379,376.567 200.046,360.567 201,344.5C 201.785,342.714 202.951,341.214 204.5,340C 223.741,338.525 243.074,338.025 262.5,338.5 Z"/></g>
<g><path style="opacity:1" fill="#d3dcfb" d="M 441.5,360.5 C 418.167,360.5 394.833,360.5 371.5,360.5C 371.334,354.824 371.501,349.157 372,343.5C 373.5,342 375,340.5 376.5,339C 386.333,338.833 396.167,338.667 406,338.5C 416.594,338.356 427.094,338.856 437.5,340C 439.049,341.214 440.215,342.714 441,344.5C 441.499,349.823 441.666,355.156 441.5,360.5 Z"/></g>
<g><path style="opacity:1" fill="#bec8f7" d="M 356.5,360.5 C 356.5,369.167 356.5,377.833 356.5,386.5C 354.733,388.938 353.399,391.605 352.5,394.5C 351.527,394.987 350.527,395.487 349.5,396C 330.167,396.667 310.833,396.667 291.5,396C 288.619,394.749 286.786,392.583 286,389.5C 285.5,378.172 285.333,366.838 285.5,355.5C 294.405,357.429 303.405,358.929 312.5,360C 327.163,360.5 341.83,360.667 356.5,360.5 Z"/></g>
<g><path style="opacity:1" fill="#d2dbfa" d="M 356.5,360.5 C 361.5,360.5 366.5,360.5 371.5,360.5C 371.5,367.167 371.5,373.833 371.5,380.5C 365.689,380.575 360.689,382.575 356.5,386.5C 356.5,377.833 356.5,369.167 356.5,360.5 Z"/></g>
<g><path style="opacity:1" fill="#bdc8f6" d="M 371.5,360.5 C 394.833,360.5 418.167,360.5 441.5,360.5C 441.5,367.167 441.5,373.833 441.5,380.5C 418.167,380.5 394.833,380.5 371.5,380.5C 371.5,373.833 371.5,367.167 371.5,360.5 Z"/></g>
<g><path style="opacity:1" fill="#d2dcfa" d="M 441.5,360.5 C 451.5,360.5 461.5,360.5 471.5,360.5C 471.5,367.167 471.5,373.833 471.5,380.5C 461.5,380.5 451.5,380.5 441.5,380.5C 441.5,373.833 441.5,367.167 441.5,360.5 Z"/></g>
<g><path style="opacity:1" fill="#e8eefe" d="M 371.5,380.5 C 394.833,380.5 418.167,380.5 441.5,380.5C 451.5,380.5 461.5,380.5 471.5,380.5C 471.542,388.916 470.709,397.25 469,405.5C 454.128,459.879 418.962,491.546 363.5,500.5C 359.5,500.5 355.5,500.5 351.5,500.5C 351.5,490.167 351.5,479.833 351.5,469.5C 351.5,450.833 351.5,432.167 351.5,413.5C 351.249,407.108 351.582,400.775 352.5,394.5C 353.399,391.605 354.733,388.938 356.5,386.5C 360.689,382.575 365.689,380.575 371.5,380.5 Z"/></g>
<g><path style="opacity:1" fill="#bfc9f7" d="M 98.5,452.5 C 82.6169,441.62 68.6169,428.62 56.5,413.5C 62.1275,412.171 68.1275,411.504 74.5,411.5C 80.5,411.667 86.5,411.833 92.5,412C 95.5827,412.786 97.7494,414.619 99,417.5C 99.8261,429.341 99.6595,441.007 98.5,452.5 Z"/></g>
<g><path style="opacity:0.999" fill="#bec8f7" d="M 126.5,470.5 C 121.148,471.328 117.481,469.328 115.5,464.5C 114.365,449.211 114.198,433.878 115,418.5C 116.563,415.272 119.063,413.105 122.5,412C 140.833,411.333 159.167,411.333 177.5,412C 180.937,413.105 183.437,415.272 185,418.5C 185.968,434.259 185.635,449.926 184,465.5C 182.457,467.378 180.624,468.878 178.5,470C 161.17,470.5 143.837,470.667 126.5,470.5 Z"/></g>
<g><path style="opacity:1" fill="#bec8f7" d="M 207.5,411.5 C 226.926,411.025 246.259,411.525 265.5,413C 267,414.5 268.5,416 270,417.5C 270.667,432.833 270.667,448.167 270,463.5C 269.214,466.583 267.381,468.749 264.5,470C 245.167,470.667 225.833,470.667 206.5,470C 204,468.833 202.167,467 201,464.5C 200.333,448.833 200.333,433.167 201,417.5C 202.914,415.144 205.081,413.144 207.5,411.5 Z"/></g>
<g><path style="opacity:1" fill="#bec8f7" d="M 351.5,413.5 C 351.5,432.167 351.5,450.833 351.5,469.5C 331.877,470.642 312.21,470.809 292.5,470C 289.244,468.413 287.077,465.913 286,462.5C 285.333,447.833 285.333,433.167 286,418.5C 287.5,415.667 289.667,413.5 292.5,412C 311.167,411.333 329.833,411.333 348.5,412C 349.527,412.513 350.527,413.013 351.5,413.5 Z"/></g>
</svg>
