<?xml version="1.0" encoding="UTF-8"?>
<!DOCTYPE svg PUBLIC "-//W3C//DTD SVG 1.1//EN" "http://www.w3.org/Graphics/SVG/1.1/DTD/svg11.dtd">
<svg xmlns="http://www.w3.org/2000/svg" version="1.1" width="512px" height="512px" style="shape-rendering:geometricPrecision; text-rendering:geometricPrecision; image-rendering:optimizeQuality; fill-rule:evenodd; clip-rule:evenodd" xmlns:xlink="http://www.w3.org/1999/xlink">
<g><path style="opacity:0.992" fill="#2a29bd" d="M 202.5,32.5 C 201.781,34.0913 200.781,35.5913 199.5,37C 181.833,37.3333 164.167,37.6667 146.5,38C 144.574,38.4224 143.574,39.5891 143.5,41.5C 142.167,177.667 142.167,314.001 143.5,450.5C 144.107,450.376 144.44,450.043 144.5,449.5C 149.981,447.007 155.481,444.673 161,442.5C 169.097,445.547 177.097,448.88 185,452.5C 192.714,449.14 200.381,445.806 208,442.5C 216.097,445.547 224.097,448.88 232,452.5C 239.714,449.14 247.381,445.806 255,442.5C 263.067,445.529 271.067,448.863 279,452.5C 286.814,449.007 294.647,445.673 302.5,442.5C 310.353,445.673 318.186,449.007 326,452.5C 333.784,449.024 341.617,445.691 349.5,442.5C 355.251,444.54 360.918,446.873 366.5,449.5C 366.56,450.043 366.893,450.376 367.5,450.5C 368.5,385.503 368.833,320.503 368.5,255.5C 369.401,253.273 371.067,252.273 373.5,252.5C 375.371,252.859 376.871,253.859 378,255.5C 378.5,308.166 378.667,360.832 378.5,413.5C 378.667,427.171 378.5,440.837 378,454.5C 377.047,456.455 375.713,458.122 374,459.5C 373.501,464.823 373.334,470.156 373.5,475.5C 372.513,470.695 372.179,465.695 372.5,460.5C 369.455,460.296 366.621,460.296 364,460.5C 359.671,457.424 355.004,455.091 350,453.5C 342.436,455.579 335.102,458.912 328,463.5C 326.542,462.253 325.042,462.253 323.5,463.5C 317.212,460.356 310.545,457.023 303.5,453.5C 300.613,453.627 298.113,454.627 296,456.5C 295.667,456.167 295.333,455.833 295,455.5C 290.321,458.921 285.821,461.587 281.5,463.5C 279.833,462.167 278.167,462.167 276.5,463.5C 274.336,461.787 272.003,460.454 269.5,459.5C 264.86,457.18 260.193,454.847 255.5,452.5C 247.835,456.583 240.002,460.25 232,463.5C 223.998,460.25 216.165,456.583 208.5,452.5C 200.835,456.583 193.002,460.25 185,463.5C 177.029,460.266 169.196,456.6 161.5,452.5C 156.5,455 151.5,457.5 146.5,460C 143.408,460.736 140.408,460.569 137.5,459.5C 135.832,457.66 134.332,455.66 133,453.5C 132.5,392.501 132.333,331.501 132.5,270.5C 132.5,222.833 132.5,175.167 132.5,127.5C 132.5,105.5 132.5,83.5 132.5,61.5C 132.334,53.8261 132.5,46.1594 133,38.5C 134.187,34.2908 136.687,31.1241 140.5,29C 160.102,27.3702 179.768,27.0369 199.5,28C 201.376,28.9184 202.376,30.4184 202.5,32.5 Z"/></g>
<g><path style="opacity:0.985" fill="#2928bd" d="M 378.5,106.5 C 378.5,109.833 378.5,113.167 378.5,116.5C 402.356,119.516 418.856,132.182 428,154.5C 436.018,180.93 429.518,203.097 408.5,221C 397.789,228.736 385.789,232.57 372.5,232.5C 357.969,232.491 345.302,227.657 334.5,218C 328.167,217.667 321.833,217.333 315.5,217C 311.5,214 311.5,211 315.5,208C 318.553,207.821 321.553,207.321 324.5,206.5C 310.469,183.275 311.302,160.609 327,138.5C 338.001,125.75 351.835,118.417 368.5,116.5C 368.667,91.4978 368.5,66.4978 368,41.5C 367.626,40.5838 367.126,39.7504 366.5,39C 318.917,37.6762 271.25,37.0095 223.5,37C 222.219,35.5913 221.219,34.0913 220.5,32.5C 220.859,30.629 221.859,29.129 223.5,28C 272.559,27.0143 321.559,27.3476 370.5,29C 374.313,31.1241 376.813,34.2908 378,38.5C 378.5,61.1642 378.667,83.8309 378.5,106.5 Z"/></g>
<g><path style="opacity:1" fill="#fdfdfe" d="M 202.5,32.5 C 208.5,32.5 214.5,32.5 220.5,32.5C 221.219,34.0913 222.219,35.5913 223.5,37C 271.25,37.0095 318.917,37.6762 366.5,39C 367.126,39.7504 367.626,40.5838 368,41.5C 368.5,66.4978 368.667,91.4978 368.5,116.5C 351.835,118.417 338.001,125.75 327,138.5C 311.302,160.609 310.469,183.275 324.5,206.5C 321.553,207.321 318.553,207.821 315.5,208C 311.5,211 311.5,214 315.5,217C 321.833,217.333 328.167,217.667 334.5,218C 345.302,227.657 357.969,232.491 372.5,232.5C 373.46,239.078 373.793,245.745 373.5,252.5C 371.067,252.273 369.401,253.273 368.5,255.5C 367.833,320.167 367.167,384.833 366.5,449.5C 360.918,446.873 355.251,444.54 349.5,442.5C 341.617,445.691 333.784,449.024 326,452.5C 318.186,449.007 310.353,445.673 302.5,442.5C 294.647,445.673 286.814,449.007 279,452.5C 271.067,448.863 263.067,445.529 255,442.5C 247.381,445.806 239.714,449.14 232,452.5C 224.097,448.88 216.097,445.547 208,442.5C 200.381,445.806 192.714,449.14 185,452.5C 177.097,448.88 169.097,445.547 161,442.5C 155.481,444.673 149.981,447.007 144.5,449.5C 143.5,313.668 143.167,177.668 143.5,41.5C 143.574,39.5891 144.574,38.4224 146.5,38C 164.167,37.6667 181.833,37.3333 199.5,37C 200.781,35.5913 201.781,34.0913 202.5,32.5 Z"/></g>
<g><path style="opacity:1" fill="#9c9ce0" d="M 143.5,41.5 C 143.167,177.668 143.5,313.668 144.5,449.5C 144.44,450.043 144.107,450.376 143.5,450.5C 142.167,314.001 142.167,177.667 143.5,41.5 Z"/></g>
<g><path style="opacity:0.939" fill="#6583fe" d="M 406.5,52.5 C 423.163,52.8258 428.663,60.8258 423,76.5C 415.355,84.1124 407.355,84.4457 399,77.5C 393.173,66.4896 395.673,58.1563 406.5,52.5 Z M 408.5,63.5 C 414.488,63.664 415.821,66.164 412.5,71C 406.834,70.835 405.501,68.335 408.5,63.5 Z"/></g>
<g><path style="opacity:0.139" fill="#cfdbff" d="M 129.5,61.5 C 129.804,62.1499 130.137,62.8165 130.5,63.5C 127.471,70.7064 124.471,76.873 121.5,82C 121.5,83 121.5,84 121.5,85C 119.699,85.3173 119.366,85.984 120.5,87C 116.943,92.7719 113.61,98.7719 110.5,105C 111.634,106.016 111.301,106.683 109.5,107C 110.634,108.016 110.301,108.683 108.5,109C 106.329,115.076 102.996,122.076 98.5,130C 99.6341,131.016 99.3008,131.683 97.5,132C 98.6341,133.016 98.3008,133.683 96.5,134C 96.5,135 96.5,136 96.5,137C 94.6992,137.317 94.3659,137.984 95.5,139C 91.9429,144.772 88.6096,150.772 85.5,157C 86.6341,158.016 86.3008,158.683 84.5,159C 85.6341,160.016 85.3008,160.683 83.5,161C 81.3293,167.076 77.9959,174.076 73.5,182C 74.6341,183.016 74.3008,183.683 72.5,184C 73.6341,185.016 73.3008,185.683 71.5,186C 69.3293,192.076 65.9959,199.076 61.5,207C 62.6341,208.016 62.3008,208.683 60.5,209C 61.6341,210.016 61.3008,210.683 59.5,211C 60.6341,212.016 60.3008,212.683 58.5,213C 56.1189,219.471 52.7856,226.471 48.5,234C 49.6341,235.016 49.3008,235.683 47.5,236C 48.6341,237.016 48.3008,237.683 46.5,238C 47.6341,239.016 47.3008,239.683 45.5,240C 46.6341,241.016 46.3008,241.683 44.5,242C 44.8333,242.333 45.1667,242.667 45.5,243C 41.3457,249.482 38.0124,255.982 35.5,262.5C 16.1382,243.778 4.1382,221.112 -0.5,194.5C -0.5,185.5 -0.5,176.5 -0.5,167.5C 11.8146,112.018 45.8146,77.8514 101.5,65C 110.824,63.3259 120.157,62.1593 129.5,61.5 Z"/></g>
<g><path style="opacity:1" fill="#2d2bbd" d="M 171.5,67.5 C 176.844,67.334 182.177,67.5006 187.5,68C 191.482,70.9515 191.482,73.9515 187.5,77C 182.167,77.6667 176.833,77.6667 171.5,77C 168.888,73.8359 168.888,70.6693 171.5,67.5 Z"/></g>
<g><path style="opacity:0.182" fill="#ccd9ff" d="M 129.5,61.5 C 130.5,61.5 131.5,61.5 132.5,61.5C 132.5,83.5 132.5,105.5 132.5,127.5C 106.108,181.286 79.9414,235.286 54,289.5C 53.6174,288.944 53.1174,288.611 52.5,288.5C 47.8419,279.187 42.1752,270.52 35.5,262.5C 38.0124,255.982 41.3457,249.482 45.5,243C 45.1667,242.667 44.8333,242.333 44.5,242C 46.3008,241.683 46.6341,241.016 45.5,240C 47.3008,239.683 47.6341,239.016 46.5,238C 48.3008,237.683 48.6341,237.016 47.5,236C 49.3008,235.683 49.6341,235.016 48.5,234C 52.7856,226.471 56.1189,219.471 58.5,213C 60.3008,212.683 60.6341,212.016 59.5,211C 61.3008,210.683 61.6341,210.016 60.5,209C 62.3008,208.683 62.6341,208.016 61.5,207C 65.9959,199.076 69.3293,192.076 71.5,186C 73.3008,185.683 73.6341,185.016 72.5,184C 74.3008,183.683 74.6341,183.016 73.5,182C 77.9959,174.076 81.3293,167.076 83.5,161C 85.3008,160.683 85.6341,160.016 84.5,159C 86.3008,158.683 86.6341,158.016 85.5,157C 88.6096,150.772 91.9429,144.772 95.5,139C 94.3659,137.984 94.6992,137.317 96.5,137C 96.5,136 96.5,135 96.5,134C 98.3008,133.683 98.6341,133.016 97.5,132C 99.3008,131.683 99.6341,131.016 98.5,130C 102.996,122.076 106.329,115.076 108.5,109C 110.301,108.683 110.634,108.016 109.5,107C 111.301,106.683 111.634,106.016 110.5,105C 113.61,98.7719 116.943,92.7719 120.5,87C 119.366,85.984 119.699,85.3173 121.5,85C 121.5,84 121.5,83 121.5,82C 124.471,76.873 127.471,70.7064 130.5,63.5C 130.137,62.8165 129.804,62.1499 129.5,61.5 Z"/></g>
<g><path style="opacity:1" fill="#2c2abd" d="M 179.5,89.5 C 230.168,89.3333 280.834,89.5 331.5,90C 334.299,93.3388 333.966,96.3388 330.5,99C 280.5,99.6667 230.5,99.6667 180.5,99C 176.968,96.1716 176.634,93.005 179.5,89.5 Z"/></g>
<g><path style="opacity:0.976" fill="#6583fe" d="M 450.5,119.5 C 446.902,128.469 440.235,131.969 430.5,130C 422.398,125.294 419.731,118.461 422.5,109.5C 426.515,102.651 432.515,100.151 440.5,102C 448.587,105.08 451.921,110.913 450.5,119.5 Z"/></g>
<g><path style="opacity:1" fill="#2c2abd" d="M 204.5,111.5 C 238.502,111.333 272.502,111.5 306.5,112C 309.299,115.339 308.966,118.339 305.5,121C 272.167,121.667 238.833,121.667 205.5,121C 201.968,118.172 201.634,115.005 204.5,111.5 Z"/></g>
<g><path style="opacity:0.702" fill="#b9c7ff" d="M 435.5,112.5 C 437.091,113.219 438.591,114.219 440,115.5C 440.165,119.977 437.998,121.477 433.5,120C 431.604,118.192 431.104,116.025 432,113.5C 433.011,112.663 434.178,112.33 435.5,112.5 Z"/></g>
<g><path style="opacity:1" fill="#6482fd" d="M 363.5,126.5 C 391.748,124.026 410.582,136.026 420,162.5C 424.36,191.451 412.86,210.951 385.5,221C 354.995,226.006 335.162,213.839 326,184.5C 322.639,154.884 335.139,135.551 363.5,126.5 Z"/></g>
<g><path style="opacity:0.283" fill="#cad6ff" d="M 132.5,127.5 C 132.5,175.167 132.5,222.833 132.5,270.5C 130.043,272.739 129.377,275.406 130.5,278.5C 125.015,285.451 120.515,293.118 117,301.5C 116.405,302.899 116.572,304.232 117.5,305.5C 112.35,311.781 108.183,318.781 105,326.5C 106,330.841 104.5,334.175 100.5,336.5C 98,341.5 95.5,346.5 93,351.5C 94.0003,355.841 92.5003,359.175 88.5,361.5C 85.6667,367.167 82.8333,372.833 80,378.5C 79.4054,379.899 79.5721,381.232 80.5,382.5C 75.3501,388.781 71.1835,395.781 68,403.5C 67.4054,404.899 67.5721,406.232 68.5,407.5C 65.1632,411.272 62.1632,415.272 59.5,419.5C 52.8627,405.283 49.196,390.283 48.5,374.5C 51.2981,354.511 53.9648,334.511 56.5,314.5C 56.2472,305.651 54.9139,296.984 52.5,288.5C 53.1174,288.611 53.6174,288.944 54,289.5C 79.9414,235.286 106.108,181.286 132.5,127.5 Z"/></g>
<g><path style="opacity:1" fill="#2828bd" d="M 371.5,141.5 C 376.601,141.685 378.934,144.352 378.5,149.5C 382.182,149.335 385.848,149.501 389.5,150C 393.482,152.952 393.482,155.952 389.5,159C 385.848,159.499 382.182,159.665 378.5,159.5C 378.5,162.833 378.5,166.167 378.5,169.5C 388.178,169.683 393.511,174.516 394.5,184C 393.922,194.078 388.588,199.245 378.5,199.5C 378.277,206.519 375.11,208.519 369,205.5C 368.505,203.527 368.338,201.527 368.5,199.5C 364.486,199.666 360.486,199.499 356.5,199C 352.518,196.048 352.518,193.048 356.5,190C 360.152,189.501 363.818,189.335 367.5,189.5C 367.5,186.167 367.5,182.833 367.5,179.5C 355.433,178.421 350.267,171.754 352,159.5C 355.368,152.629 360.868,149.296 368.5,149.5C 367.829,146.014 368.829,143.347 371.5,141.5 Z"/></g>
<g><path style="opacity:1" fill="#302dbe" d="M 232.5,148.5 C 247.837,148.333 263.17,148.5 278.5,149C 282.717,152.473 282.384,155.473 277.5,158C 262.5,158.667 247.5,158.667 232.5,158C 228.599,154.792 228.599,151.626 232.5,148.5 Z"/></g>
<g><path style="opacity:0.864" fill="#bbc8fe" d="M 378.5,106.5 C 393.305,105.924 407.972,106.924 422.5,109.5C 419.731,118.461 422.398,125.294 430.5,130C 440.235,131.969 446.902,128.469 450.5,119.5C 478.231,132.566 497.231,153.566 507.5,182.5C 472.991,252.854 438.991,323.52 405.5,394.5C 397.336,401.993 388.336,408.326 378.5,413.5C 378.667,360.832 378.5,308.166 378,255.5C 376.871,253.859 375.371,252.859 373.5,252.5C 373.793,245.745 373.46,239.078 372.5,232.5C 385.789,232.57 397.789,228.736 408.5,221C 429.518,203.097 436.018,180.93 428,154.5C 418.856,132.182 402.356,119.516 378.5,116.5C 378.5,113.167 378.5,109.833 378.5,106.5 Z"/></g>
<g><path style="opacity:1" fill="#5f7af7" d="M 364.5,159.5 C 365.833,159.5 367.167,159.5 368.5,159.5C 368.5,162.833 368.5,166.167 368.5,169.5C 363.335,169.838 361.169,167.505 362,162.5C 362.698,161.309 363.531,160.309 364.5,159.5 Z"/></g>
<g><path style="opacity:1" fill="#627ffb" d="M 378.5,179.5 C 384.566,180.659 385.9,183.826 382.5,189C 381.207,189.49 379.873,189.657 378.5,189.5C 378.5,186.167 378.5,182.833 378.5,179.5 Z"/></g>
<g><path style="opacity:0.921" fill="#b8c6ff" d="M 507.5,182.5 C 508.852,188.279 510.185,193.946 511.5,199.5C 511.5,210.167 511.5,220.833 511.5,231.5C 503.951,271.315 487.451,306.982 462,338.5C 445.294,359.373 426.461,378.04 405.5,394.5C 438.991,323.52 472.991,252.854 507.5,182.5 Z"/></g>
<g><path style="opacity:1" fill="#2d2bbd" d="M 171.5,187.5 C 176.844,187.334 182.177,187.501 187.5,188C 191.482,190.952 191.482,193.952 187.5,197C 182.167,197.667 176.833,197.667 171.5,197C 168.888,193.836 168.888,190.669 171.5,187.5 Z"/></g>
<g><path style="opacity:1" fill="#6784fe" d="M 99.5,207.5 C 108.847,205.423 115.347,208.756 119,217.5C 119.394,233.773 111.894,239.273 96.5,234C 89.5678,227.178 88.7345,219.678 94,211.5C 95.8121,210.023 97.6455,208.69 99.5,207.5 Z"/></g>
<g><path style="opacity:1" fill="#2827bc" d="M 171.5,207.5 C 201.835,207.333 232.168,207.5 262.5,208C 266.482,210.952 266.482,213.952 262.5,217C 232.167,217.667 201.833,217.667 171.5,217C 168.888,213.836 168.888,210.669 171.5,207.5 Z"/></g>
<g><path style="opacity:0.253" fill="#c6d3ff" d="M 102.5,217.5 C 108.662,217.45 110.329,219.95 107.5,225C 100.798,225.802 99.1315,223.302 102.5,217.5 Z"/></g>
<g><path style="opacity:1" fill="#302dbe" d="M 172.5,232.5 C 177.511,232.334 182.511,232.501 187.5,233C 191.072,235.626 191.405,238.626 188.5,242C 182.833,242.667 177.167,242.667 171.5,242C 168.636,238.376 168.969,235.209 172.5,232.5 Z"/></g>
<g><path style="opacity:1" fill="#3430bf" d="M 330.5,232.5 C 337.238,233.061 338.905,236.228 335.5,242C 330.932,243.65 328.266,242.15 327.5,237.5C 328.092,235.577 329.092,233.911 330.5,232.5 Z"/></g>
<g><path style="opacity:1" fill="#302dbe" d="M 172.5,252.5 C 209.168,252.333 245.835,252.5 282.5,253C 286.072,255.626 286.405,258.626 283.5,262C 246.167,262.667 208.833,262.667 171.5,262C 168.636,258.376 168.969,255.209 172.5,252.5 Z"/></g>
<g><path style="opacity:1" fill="#342fbe" d="M 315.5,252.5 C 322.175,252.334 328.842,252.5 335.5,253C 340.15,255.592 340.483,258.592 336.5,262C 329.167,262.667 321.833,262.667 314.5,262C 311.675,258.476 312.008,255.31 315.5,252.5 Z"/></g>
<g><path style="opacity:1" fill="#9e9ee1" d="M 368.5,255.5 C 368.833,320.503 368.5,385.503 367.5,450.5C 366.893,450.376 366.56,450.043 366.5,449.5C 367.167,384.833 367.833,320.167 368.5,255.5 Z"/></g>
<g><path style="opacity:0.999" fill="#6885fe" d="M 86.5,261.5 C 88.1992,261.34 89.8659,261.506 91.5,262C 95.3333,265.833 99.1667,269.667 103,273.5C 103.593,280.245 100.76,282.412 94.5,280C 92.6667,278.167 90.8333,276.333 89,274.5C 86.7953,277.04 84.2953,279.207 81.5,281C 75.8389,281.667 73.6723,279.167 75,273.5C 79.037,269.631 82.8704,265.631 86.5,261.5 Z"/></g>
<g><path style="opacity:1" fill="#332fbe" d="M 171.5,278.5 C 177.176,278.334 182.843,278.501 188.5,279C 191.311,282.294 190.978,285.294 187.5,288C 182.5,288.667 177.5,288.667 172.5,288C 168.86,285.302 168.527,282.135 171.5,278.5 Z"/></g>
<g><path style="opacity:1" fill="#3732bf" d="M 329.5,278.5 C 337.877,278.274 339.544,281.441 334.5,288C 327.474,287.759 325.807,284.593 329.5,278.5 Z"/></g>
<g><path style="opacity:0.361" fill="#c7d4fe" d="M 132.5,270.5 C 132.333,331.501 132.5,392.501 133,453.5C 134.332,455.66 135.832,457.66 137.5,459.5C 137.815,463.371 137.482,467.038 136.5,470.5C 110.263,466.965 88.0961,455.632 70,436.5C 65.9876,431.14 62.4876,425.474 59.5,419.5C 62.1632,415.272 65.1632,411.272 68.5,407.5C 67.5721,406.232 67.4054,404.899 68,403.5C 71.1835,395.781 75.3501,388.781 80.5,382.5C 79.5721,381.232 79.4054,379.899 80,378.5C 82.8333,372.833 85.6667,367.167 88.5,361.5C 92.5003,359.175 94.0003,355.841 93,351.5C 95.5,346.5 98,341.5 100.5,336.5C 104.5,334.175 106,330.841 105,326.5C 108.183,318.781 112.35,311.781 117.5,305.5C 116.572,304.232 116.405,302.899 117,301.5C 120.515,293.118 125.015,285.451 130.5,278.5C 129.377,275.406 130.043,272.739 132.5,270.5 Z"/></g>
<g><path style="opacity:1" fill="#2e2cbd" d="M 171.5,298.5 C 205.502,298.333 239.502,298.5 273.5,299C 276.311,302.294 275.978,305.294 272.5,308C 239.167,308.667 205.833,308.667 172.5,308C 168.86,305.302 168.527,302.135 171.5,298.5 Z"/></g>
<g><path style="opacity:1" fill="#322ebe" d="M 314.5,298.5 C 321.841,298.334 329.174,298.5 336.5,299C 340.483,302.408 340.15,305.408 335.5,308C 328.833,308.667 322.167,308.667 315.5,308C 311.846,305.209 311.513,302.043 314.5,298.5 Z"/></g>
<g><path style="opacity:1" fill="#2c2abd" d="M 171.5,323.5 C 176.844,323.334 182.177,323.501 187.5,324C 191.482,327.048 191.482,330.048 187.5,333C 182.167,333.667 176.833,333.667 171.5,333C 168.888,329.836 168.888,326.669 171.5,323.5 Z"/></g>
<g><path style="opacity:1" fill="#322ebe" d="M 330.5,323.5 C 335.325,323.488 337.491,325.821 337,330.5C 334,334.5 331,334.5 328,330.5C 327.162,327.519 327.995,325.186 330.5,323.5 Z"/></g>
<g><path style="opacity:1" fill="#2a29bd" d="M 171.5,343.5 C 191.836,343.333 212.169,343.5 232.5,344C 236.482,347.048 236.482,350.048 232.5,353C 212.167,353.667 191.833,353.667 171.5,353C 168.888,349.836 168.888,346.669 171.5,343.5 Z"/></g>
<g><path style="opacity:1" fill="#2e2bbd" d="M 252.5,343.5 C 261.173,343.334 269.84,343.5 278.5,344C 282.5,347 282.5,350 278.5,353C 269.833,353.667 261.167,353.667 252.5,353C 248.581,349.84 248.581,346.673 252.5,343.5 Z"/></g>
<g><path style="opacity:1" fill="#2c2abd" d="M 315.5,343.5 C 322.175,343.334 328.842,343.5 335.5,344C 339.085,346.528 339.418,349.528 336.5,353C 329.5,353.667 322.5,353.667 315.5,353C 311.562,349.887 311.562,346.72 315.5,343.5 Z"/></g>
<g><path style="opacity:1" fill="#2827bc" d="M 171.5,401.5 C 184.504,401.333 197.504,401.5 210.5,402C 213.167,405 213.167,408 210.5,411C 197.5,411.667 184.5,411.667 171.5,411C 168.888,407.836 168.888,404.669 171.5,401.5 Z"/></g>
<g><path style="opacity:1" fill="#2928bc" d="M 307.5,401.5 C 317.172,401.334 326.839,401.5 336.5,402C 339.167,405 339.167,408 336.5,411C 326.833,411.667 317.167,411.667 307.5,411C 304.888,407.836 304.888,404.669 307.5,401.5 Z"/></g>
<g><path style="opacity:0.902" fill="#6582fe" d="M 413.5,406.5 C 415.857,406.337 418.19,406.503 420.5,407C 424,410.5 427.5,414 431,417.5C 433.06,424.438 430.56,427.271 423.5,426C 421.333,423.833 419.167,421.667 417,419.5C 414.795,422.04 412.295,424.207 409.5,426C 402.875,426.584 400.708,423.751 403,417.5C 406.704,413.964 410.204,410.298 413.5,406.5 Z"/></g>
<g><path style="opacity:0.654" fill="#b5c1f9" d="M 269.5,459.5 C 249.198,465.627 228.531,469.96 207.5,472.5C 193.181,473.298 178.848,473.631 164.5,473.5C 162.5,473.5 160.5,473.5 158.5,473.5C 151.5,472.833 144.5,472.167 137.5,471.5C 136.833,471.5 136.5,471.167 136.5,470.5C 137.482,467.038 137.815,463.371 137.5,459.5C 140.408,460.569 143.408,460.736 146.5,460C 151.5,457.5 156.5,455 161.5,452.5C 169.196,456.6 177.029,460.266 185,463.5C 193.002,460.25 200.835,456.583 208.5,452.5C 216.165,456.583 223.998,460.25 232,463.5C 240.002,460.25 247.835,456.583 255.5,452.5C 260.193,454.847 264.86,457.18 269.5,459.5 Z"/></g>
<g><path style="opacity:0.104" fill="#2928b8" d="M 373.5,475.5 C 373.23,478.937 371.397,480.937 368,481.5C 361.788,478.644 355.621,475.644 349.5,472.5C 341.835,476.583 334.002,480.25 326,483.5C 317.998,480.25 310.165,476.583 302.5,472.5C 294.835,476.583 287.002,480.25 279,483.5C 270.998,480.25 263.165,476.583 255.5,472.5C 247.835,476.583 240.002,480.25 232,483.5C 223.765,479.965 215.598,476.299 207.5,472.5C 228.531,469.96 249.198,465.627 269.5,459.5C 272.003,460.454 274.336,461.787 276.5,463.5C 278.167,462.167 279.833,462.167 281.5,463.5C 285.821,461.587 290.321,458.921 295,455.5C 295.333,455.833 295.667,456.167 296,456.5C 298.113,454.627 300.613,453.627 303.5,453.5C 310.545,457.023 317.212,460.356 323.5,463.5C 325.042,462.253 326.542,462.253 328,463.5C 335.102,458.912 342.436,455.579 350,453.5C 355.004,455.091 359.671,457.424 364,460.5C 366.621,460.296 369.455,460.296 372.5,460.5C 372.179,465.695 372.513,470.695 373.5,475.5 Z"/></g>
<g><path style="opacity:0.098" fill="#2827b7" d="M 137.5,471.5 C 144.5,472.167 151.5,472.833 158.5,473.5C 153.598,476.535 148.432,479.202 143,481.5C 138.021,480.059 136.188,476.726 137.5,471.5 Z"/></g>
<g><path style="opacity:0.098" fill="#2928b9" d="M 207.5,472.5 C 200.386,476.806 192.886,480.473 185,483.5C 177.781,480.807 170.948,477.473 164.5,473.5C 178.848,473.631 193.181,473.298 207.5,472.5 Z"/></g>
</svg>
