<?xml version="1.0" encoding="UTF-8"?>
<!DOCTYPE svg PUBLIC "-//W3C//DTD SVG 1.1//EN" "http://www.w3.org/Graphics/SVG/1.1/DTD/svg11.dtd">
<svg xmlns="http://www.w3.org/2000/svg" version="1.1" width="512px" height="512px" style="shape-rendering:geometricPrecision; text-rendering:geometricPrecision; image-rendering:optimizeQuality; fill-rule:evenodd; clip-rule:evenodd" xmlns:xlink="http://www.w3.org/1999/xlink">
<g><path style="opacity:0.999" fill="#ece2dd" d="M 68.5,-0.5 C 130.5,-0.5 192.5,-0.5 254.5,-0.5C 241.235,11.5327 241.235,23.5327 254.5,35.5C 238.325,35.1703 222.325,35.5036 206.5,36.5C 201.353,37.4734 197.853,40.4734 196,45.5C 195.333,64.1667 195.333,82.8333 196,101.5C 197.853,106.527 201.353,109.527 206.5,110.5C 221.991,111.496 237.658,111.83 253.5,111.5C 244.471,117.698 238.305,126.031 235,136.5C 234.505,138.473 234.338,140.473 234.5,142.5C 232.86,141.68 231.193,140.847 229.5,140C 187.167,139.333 144.833,139.333 102.5,140C 92.4597,142.239 88.6264,148.406 91,158.5C 92.8917,162.058 95.7251,164.558 99.5,166C 142.832,166.5 186.165,166.667 229.5,166.5C 223.243,175.931 222.91,185.597 228.5,195.5C 207.167,195.5 185.833,195.5 164.5,195.5C 142.164,195.333 119.831,195.5 97.5,196C 93.8571,197.805 91.5237,200.638 90.5,204.5C 89.5013,248.997 89.1679,293.664 89.5,338.5C 89.6783,344.687 92.6783,348.854 98.5,351C 142.165,351.5 185.832,351.667 229.5,351.5C 221.927,360.905 221.593,370.571 228.5,380.5C 184.832,380.333 141.165,380.5 97.5,381C 90.4003,385.846 88.5669,392.346 92,400.5C 93.9384,403.106 96.4384,404.939 99.5,406C 142.499,406.5 185.499,406.667 228.5,406.5C 225.895,412.139 225.895,417.806 228.5,423.5C 185.499,423.333 142.499,423.5 99.5,424C 91.1543,427.529 88.3209,433.696 91,442.5C 92.5,445.333 94.6667,447.5 97.5,449C 141.499,449.5 185.499,449.667 229.5,449.5C 213.945,468.258 212.612,487.925 225.5,508.5C 225.043,509.298 224.376,509.631 223.5,509.5C 160.407,500.877 108.24,472.544 67,424.5C 61.5681,417.284 56.4014,409.95 51.5,402.5C 51.5,311.833 51.5,221.167 51.5,130.5C 51.3333,92.8319 51.5,55.1652 52,17.5C 54.5923,8.74455 60.0923,2.74455 68.5,-0.5 Z"/></g>
<g><path style="opacity:0.999" fill="#f8f1f1" d="M 254.5,-0.5 C 316.833,-0.5 379.167,-0.5 441.5,-0.5C 450.483,2.318 456.317,8.318 459,17.5C 459.499,23.4908 459.666,29.4908 459.5,35.5C 391.167,35.5 322.833,35.5 254.5,35.5C 241.235,23.5327 241.235,11.5327 254.5,-0.5 Z"/></g>
<g><path style="opacity:1" fill="#2fa7fe" d="M 104.5,35.5 C 120.503,35.3334 136.503,35.5001 152.5,36C 158.272,38.1055 162.438,41.9389 165,47.5C 165.667,64.5 165.667,81.5 165,98.5C 162.762,105.07 158.262,109.237 151.5,111C 135.833,111.667 120.167,111.667 104.5,111C 97.2336,108.734 92.7336,103.901 91,96.5C 90.3333,80.8333 90.3333,65.1667 91,49.5C 93.0166,42.3185 97.5166,37.6518 104.5,35.5 Z"/></g>
<g><path style="opacity:1" fill="#fd3d97" d="M 206.5,36.5 C 222.503,36.3334 238.503,36.5001 254.5,37C 246.48,45.0945 246.814,52.9279 255.5,60.5C 249.048,60.0845 242.715,60.5845 236.5,62C 230.888,66.1756 229.055,71.6756 231,78.5C 232.892,82.0579 235.725,84.5579 239.5,86C 244.489,86.4993 249.489,86.6659 254.5,86.5C 246.597,94.408 246.597,102.241 254.5,110C 238.503,110.5 222.503,110.667 206.5,110.5C 201.353,109.527 197.853,106.527 196,101.5C 195.333,82.8333 195.333,64.1667 196,45.5C 197.853,40.4734 201.353,37.4734 206.5,36.5 Z"/></g>
<g><path style="opacity:0.999" fill="#fd77a6" d="M 206.5,36.5 C 222.325,35.5036 238.325,35.1703 254.5,35.5C 322.833,35.5 391.167,35.5 459.5,35.5C 459.5,60.5 459.5,85.5 459.5,110.5C 390.792,110.173 322.125,110.507 253.5,111.5C 237.658,111.83 221.991,111.496 206.5,110.5C 222.503,110.667 238.503,110.5 254.5,110C 246.597,102.241 246.597,94.408 254.5,86.5C 303.501,86.6667 352.501,86.5 401.5,86C 411.241,82.6739 414.075,76.1739 410,66.5C 408.039,63.8647 405.539,62.0314 402.5,61C 353.501,60.5 304.501,60.3333 255.5,60.5C 246.814,52.9279 246.48,45.0945 254.5,37C 238.503,36.5001 222.503,36.3334 206.5,36.5 Z"/></g>
<g><path style="opacity:1" fill="#e5f6fc" d="M 125.5,49.5 C 130.28,48.6409 133.78,50.3075 136,54.5C 136.333,57.8333 136.667,61.1667 137,64.5C 141.161,65.1875 145.327,66.0209 149.5,67C 153.446,71.1284 153.446,75.2951 149.5,79.5C 145.691,81.0929 141.691,81.9262 137.5,82C 136.969,86.2661 135.969,90.4328 134.5,94.5C 130.295,98.4463 126.128,98.4463 122,94.5C 120.81,90.6192 120.143,86.6192 120,82.5C 115.804,81.8955 111.637,81.0622 107.5,80C 103.5,75.6667 103.5,71.3333 107.5,67C 111.637,65.9378 115.804,65.1045 120,64.5C 120.333,61.1667 120.667,57.8333 121,54.5C 122.025,52.313 123.525,50.6464 125.5,49.5 Z"/></g>
<g><path style="opacity:1" fill="#ff0363" d="M 255.5,60.5 C 304.501,60.3333 353.501,60.5 402.5,61C 405.539,62.0314 408.039,63.8647 410,66.5C 414.075,76.1739 411.241,82.6739 401.5,86C 352.501,86.5 303.501,86.6667 254.5,86.5C 249.489,86.6659 244.489,86.4993 239.5,86C 235.725,84.5579 232.892,82.0579 231,78.5C 229.055,71.6756 230.888,66.1756 236.5,62C 242.715,60.5845 249.048,60.0845 255.5,60.5 Z"/></g>
<g><path style="opacity:0.999" fill="#f8f1f1" d="M 459.5,110.5 C 459.5,117.167 459.5,123.833 459.5,130.5C 459.5,221.167 459.5,311.833 459.5,402.5C 456.182,408.455 452.349,414.122 448,419.5C 441.281,427.622 434.114,435.289 426.5,442.5C 429.224,433.449 426.224,427.282 417.5,424C 403.5,423.333 389.5,423.333 375.5,424C 366.114,428.828 363.948,435.994 369,445.5C 370.41,446.787 371.91,447.954 373.5,449C 388.496,449.5 403.496,449.667 418.5,449.5C 389.833,475.677 356.5,493.844 318.5,504C 304.822,507.238 291.156,509.738 277.5,511.5C 262.833,511.5 248.167,511.5 233.5,511.5C 230.167,510.833 226.833,510.167 223.5,509.5C 224.376,509.631 225.043,509.298 225.5,508.5C 212.612,487.925 213.945,468.258 229.5,449.5C 239.417,445.255 241.917,438.255 237,428.5C 234.682,425.926 231.849,424.259 228.5,423.5C 225.895,417.806 225.895,412.139 228.5,406.5C 239.918,402.439 242.585,395.106 236.5,384.5C 234.317,382.216 231.65,380.882 228.5,380.5C 221.593,370.571 221.927,360.905 229.5,351.5C 236.19,349.816 239.857,345.483 240.5,338.5C 240.667,294.165 240.5,249.832 240,205.5C 238.497,199.498 234.664,196.164 228.5,195.5C 222.91,185.597 223.243,175.931 229.5,166.5C 237.952,162.93 241.118,156.597 239,147.5C 237.951,145.382 236.451,143.716 234.5,142.5C 234.338,140.473 234.505,138.473 235,136.5C 238.305,126.031 244.471,117.698 253.5,111.5C 322.125,110.507 390.792,110.173 459.5,110.5 Z"/></g>
<g><path style="opacity:0.986" fill="#27a6ff" d="M 51.5,130.5 C 51.5,221.167 51.5,311.833 51.5,402.5C 17.8039,351.555 4.6372,295.555 12,234.5C 16.8314,196.484 29.9981,161.817 51.5,130.5 Z"/></g>
<g><path style="opacity:0.987" fill="#27a6ff" d="M 459.5,130.5 C 494.548,183.715 507.381,242.048 498,305.5C 492.312,340.845 479.479,373.178 459.5,402.5C 459.5,311.833 459.5,221.167 459.5,130.5 Z"/></g>
<g><path style="opacity:1" fill="#ddd1cc" d="M 234.5,142.5 C 236.451,143.716 237.951,145.382 239,147.5C 241.118,156.597 237.952,162.93 229.5,166.5C 186.165,166.667 142.832,166.5 99.5,166C 95.7251,164.558 92.8917,162.058 91,158.5C 88.6264,148.406 92.4597,142.239 102.5,140C 144.833,139.333 187.167,139.333 229.5,140C 231.193,140.847 232.86,141.68 234.5,142.5 Z"/></g>
<g><path style="opacity:1" fill="#fe4098" d="M 299.5,166.5 C 301.167,166.5 302.833,166.5 304.5,166.5C 302.682,174.359 303.182,182.026 306,189.5C 307.857,192.2 310.357,193.866 313.5,194.5C 310.704,197.797 307.704,200.964 304.5,204C 303.167,204.667 301.833,204.667 300.5,204C 295.462,197.347 289.962,196.847 284,202.5C 283.245,205.303 283.578,207.97 285,210.5C 288.5,214 292,217.5 295.5,221C 300.952,224.257 306.285,224.09 311.5,220.5C 310.476,226.883 312.143,232.383 316.5,237C 319.391,238.274 322.058,239.774 324.5,241.5C 304.661,250.583 287.494,246.917 273,230.5C 264.205,216.394 263.205,201.727 270,186.5C 276.733,175.268 286.566,168.602 299.5,166.5 Z"/></g>
<g><path style="opacity:1" fill="#fd78a6" d="M 299.5,166.5 C 319.877,164.338 334.377,172.671 343,191.5C 349.321,212.932 343.154,229.599 324.5,241.5C 322.058,239.774 319.391,238.274 316.5,237C 312.143,232.383 310.476,226.883 311.5,220.5C 315.797,215.702 320.297,211.035 325,206.5C 328.624,201.831 328.124,197.664 323.5,194C 320.112,193.341 316.779,193.508 313.5,194.5C 310.357,193.866 307.857,192.2 306,189.5C 303.182,182.026 302.682,174.359 304.5,166.5C 302.833,166.5 301.167,166.5 299.5,166.5 Z"/></g>
<g><path style="opacity:1" fill="#ddd1cc" d="M 374.5,173.5 C 390.238,173.047 405.904,173.547 421.5,175C 429.141,181.933 429.475,189.266 422.5,197C 421.167,197.667 419.833,198.333 418.5,199C 404.167,199.667 389.833,199.667 375.5,199C 367.154,195.471 364.321,189.304 367,180.5C 369.015,177.588 371.515,175.255 374.5,173.5 Z"/></g>
<g><path style="opacity:1" fill="#f9eef0" d="M 311.5,220.5 C 306.285,224.09 300.952,224.257 295.5,221C 292,217.5 288.5,214 285,210.5C 283.578,207.97 283.245,205.303 284,202.5C 289.962,196.847 295.462,197.347 300.5,204C 301.833,204.667 303.167,204.667 304.5,204C 307.704,200.964 310.704,197.797 313.5,194.5C 316.779,193.508 320.112,193.341 323.5,194C 328.124,197.664 328.624,201.831 325,206.5C 320.297,211.035 315.797,215.702 311.5,220.5 Z"/></g>
<g><path style="opacity:1" fill="#04c0fb" d="M 164.5,195.5 C 160.547,199.669 160.547,203.835 164.5,208C 162.292,208.191 160.292,208.691 158.5,209.5C 144.923,213.243 136.09,221.909 132,235.5C 131.667,241.833 131.333,248.167 131,254.5C 129.492,256.017 128.658,257.851 128.5,260C 129.864,263.76 131.031,267.593 132,271.5C 133.262,273.303 134.929,274.636 137,275.5C 138.253,283.603 141.253,290.937 146,297.5C 146.259,302.071 145.259,306.404 143,310.5C 133.784,313.356 124.95,317.189 116.5,322C 105.655,322.748 97.3221,327.581 91.5,336.5C 90.5013,292.67 90.168,248.67 90.5,204.5C 91.5237,200.638 93.8571,197.805 97.5,196C 119.831,195.5 142.164,195.333 164.5,195.5 Z"/></g>
<g><path style="opacity:1" fill="#6cd9fa" d="M 164.5,195.5 C 185.833,195.5 207.167,195.5 228.5,195.5C 234.664,196.164 238.497,199.498 240,205.5C 240.5,249.832 240.667,294.165 240.5,338.5C 239.508,338.672 238.842,338.338 238.5,337.5C 239.826,322.661 239.826,307.661 238.5,292.5C 218.335,302.637 203.002,297.971 192.5,278.5C 192.351,277.448 192.517,276.448 193,275.5C 194.955,274.547 196.622,273.213 198,271.5C 198.738,267.528 199.904,263.694 201.5,260C 200.799,257.62 199.633,255.453 198,253.5C 200.874,236.435 195.374,222.935 181.5,213C 174.169,209.875 166.503,208.708 158.5,209.5C 160.292,208.691 162.292,208.191 164.5,208C 160.547,203.835 160.547,199.669 164.5,195.5 Z"/></g>
<g><path style="opacity:1" fill="#5ccdef" d="M 90.5,204.5 C 90.168,248.67 90.5013,292.67 91.5,336.5C 91.1667,337.5 90.5,338.167 89.5,338.5C 89.1679,293.664 89.5013,248.997 90.5,204.5 Z"/></g>
<g><path style="opacity:1" fill="#ace8f6" d="M 158.5,209.5 C 166.503,208.708 174.169,209.875 181.5,213C 195.374,222.935 200.874,236.435 198,253.5C 199.633,255.453 200.799,257.62 201.5,260C 199.904,263.694 198.738,267.528 198,271.5C 196.622,273.213 194.955,274.547 193,275.5C 192.517,276.448 192.351,277.448 192.5,278.5C 191.061,285.049 188.228,291.049 184,296.5C 183.531,301.439 184.531,306.106 187,310.5C 195.937,313.368 204.437,317.201 212.5,322C 221.176,322.535 228.676,325.702 235,331.5C 236.421,333.405 237.588,335.405 238.5,337.5C 238.842,338.338 239.508,338.672 240.5,338.5C 239.857,345.483 236.19,349.816 229.5,351.5C 185.832,351.667 142.165,351.5 98.5,351C 92.6783,348.854 89.6783,344.687 89.5,338.5C 90.5,338.167 91.1667,337.5 91.5,336.5C 97.3221,327.581 105.655,322.748 116.5,322C 124.95,317.189 133.784,313.356 143,310.5C 145.259,306.404 146.259,302.071 146,297.5C 141.253,290.937 138.253,283.603 137,275.5C 134.929,274.636 133.262,273.303 132,271.5C 131.031,267.593 129.864,263.76 128.5,260C 128.658,257.851 129.492,256.017 131,254.5C 131.333,248.167 131.667,241.833 132,235.5C 136.09,221.909 144.923,213.243 158.5,209.5 Z"/></g>
<g><path style="opacity:1" fill="#ddd1cd" d="M 375.5,216.5 C 389.504,216.333 403.504,216.5 417.5,217C 426.754,220.677 429.588,227.177 426,236.5C 423.736,239.433 420.902,241.6 417.5,243C 402.765,243.949 388.098,243.616 373.5,242C 366.4,237.154 364.567,230.654 368,222.5C 370.114,219.879 372.614,217.879 375.5,216.5 Z"/></g>
<g><path style="opacity:1" fill="#fe4098" d="M 304.5,269.5 C 302.682,277.359 303.182,285.026 306,292.5C 308.378,294.742 310.544,297.075 312.5,299.5C 309.822,303.012 306.655,306.012 303,308.5C 300.551,307.056 298.385,305.222 296.5,303C 286.511,299.993 282.677,303.493 285,313.5C 288.833,317.333 292.667,321.167 296.5,325C 301.812,327.21 306.812,326.71 311.5,323.5C 309.983,334.835 314.65,341.835 325.5,344.5C 304.459,354.447 286.626,350.447 272,332.5C 259.782,309.628 263.949,290.461 284.5,275C 290.653,271.226 297.319,269.393 304.5,269.5 Z"/></g>
<g><path style="opacity:1" fill="#fd78a6" d="M 304.5,269.5 C 323.672,270.338 336.839,279.671 344,297.5C 348.504,317.505 342.338,333.172 325.5,344.5C 314.65,341.835 309.983,334.835 311.5,323.5C 316.13,318.369 320.963,313.369 326,308.5C 328.29,299.211 324.79,295.378 315.5,297C 314.627,298.045 313.627,298.878 312.5,299.5C 310.544,297.075 308.378,294.742 306,292.5C 303.182,285.026 302.682,277.359 304.5,269.5 Z"/></g>
<g><path style="opacity:1" fill="#ddd1cc" d="M 375.5,276.5 C 390.572,276.049 405.572,276.549 420.5,278C 429.494,285.153 429.827,292.819 421.5,301C 420.5,301.333 419.5,301.667 418.5,302C 403.833,302.667 389.167,302.667 374.5,302C 369.075,299.811 366.408,295.811 366.5,290C 366.513,283.491 369.513,278.991 375.5,276.5 Z"/></g>
<g><path style="opacity:1" fill="#08c0fb" d="M 192.5,278.5 C 203.002,297.971 218.335,302.637 238.5,292.5C 239.826,307.661 239.826,322.661 238.5,337.5C 237.588,335.405 236.421,333.405 235,331.5C 228.676,325.702 221.176,322.535 212.5,322C 204.437,317.201 195.937,313.368 187,310.5C 184.531,306.106 183.531,301.439 184,296.5C 188.228,291.049 191.061,285.049 192.5,278.5 Z"/></g>
<g><path style="opacity:1" fill="#f9f0f1" d="M 311.5,323.5 C 306.812,326.71 301.812,327.21 296.5,325C 292.667,321.167 288.833,317.333 285,313.5C 282.677,303.493 286.511,299.993 296.5,303C 298.385,305.222 300.551,307.056 303,308.5C 306.655,306.012 309.822,303.012 312.5,299.5C 313.627,298.878 314.627,298.045 315.5,297C 324.79,295.378 328.29,299.211 326,308.5C 320.963,313.369 316.13,318.369 311.5,323.5 Z"/></g>
<g><path style="opacity:1" fill="#ddd1cc" d="M 374.5,320.5 C 389.17,320.333 403.837,320.5 418.5,321C 428.955,326.943 430.289,334.609 422.5,344C 420.913,344.862 419.246,345.529 417.5,346C 403.5,346.667 389.5,346.667 375.5,346C 367.154,342.471 364.321,336.304 367,327.5C 369.069,324.594 371.569,322.261 374.5,320.5 Z"/></g>
<g><path style="opacity:1" fill="#fe4098" d="M 298.5,373.5 C 300.5,373.5 302.5,373.5 304.5,373.5C 302.767,381.344 303.267,389.011 306,396.5C 307.857,399.2 310.357,400.866 313.5,401.5C 310.704,404.797 307.704,407.964 304.5,411C 303.167,411.667 301.833,411.667 300.5,411C 293.694,401.97 288.027,402.47 283.5,412.5C 283.577,414.299 284.077,415.966 285,417.5C 288.5,421 292,424.5 295.5,428C 300.623,431.368 305.623,431.201 310.5,427.5C 310.824,432.726 312.324,437.726 315,442.5C 318.147,444.65 321.313,446.65 324.5,448.5C 305.258,457.482 288.425,454.149 274,438.5C 266.151,428.098 263.484,416.431 266,403.5C 270.947,387.05 281.78,377.05 298.5,373.5 Z"/></g>
<g><path style="opacity:1" fill="#fd78a6" d="M 298.5,373.5 C 319.298,370.987 334.131,379.32 343,398.5C 349.321,419.932 343.154,436.599 324.5,448.5C 321.313,446.65 318.147,444.65 315,442.5C 312.324,437.726 310.824,432.726 310.5,427.5C 315.438,423.064 320.271,418.397 325,413.5C 328.925,407.701 327.759,403.201 321.5,400C 318.562,399.288 315.896,399.788 313.5,401.5C 310.357,400.866 307.857,399.2 306,396.5C 303.267,389.011 302.767,381.344 304.5,373.5C 302.5,373.5 300.5,373.5 298.5,373.5 Z"/></g>
<g><path style="opacity:1" fill="#ddd1cc" d="M 228.5,380.5 C 231.65,380.882 234.317,382.216 236.5,384.5C 242.585,395.106 239.918,402.439 228.5,406.5C 185.499,406.667 142.499,406.5 99.5,406C 96.4384,404.939 93.9384,403.106 92,400.5C 88.5669,392.346 90.4003,385.846 97.5,381C 141.165,380.5 184.832,380.333 228.5,380.5 Z"/></g>
<g><path style="opacity:1" fill="#ddd1cc" d="M 374.5,380.5 C 390.238,380.047 405.904,380.547 421.5,382C 428.747,388.321 429.414,395.321 423.5,403C 421.725,404.439 419.725,405.439 417.5,406C 403.5,406.667 389.5,406.667 375.5,406C 367.154,402.471 364.321,396.304 367,387.5C 368.742,384.254 371.242,381.921 374.5,380.5 Z"/></g>
<g><path style="opacity:1" fill="#f9edef" d="M 310.5,427.5 C 305.623,431.201 300.623,431.368 295.5,428C 292,424.5 288.5,421 285,417.5C 284.077,415.966 283.577,414.299 283.5,412.5C 288.027,402.47 293.694,401.97 300.5,411C 301.833,411.667 303.167,411.667 304.5,411C 307.704,407.964 310.704,404.797 313.5,401.5C 315.896,399.788 318.562,399.288 321.5,400C 327.759,403.201 328.925,407.701 325,413.5C 320.271,418.397 315.438,423.064 310.5,427.5 Z"/></g>
<g><path style="opacity:1" fill="#ddd1cc" d="M 228.5,423.5 C 231.849,424.259 234.682,425.926 237,428.5C 241.917,438.255 239.417,445.255 229.5,449.5C 185.499,449.667 141.499,449.5 97.5,449C 94.6667,447.5 92.5,445.333 91,442.5C 88.3209,433.696 91.1543,427.529 99.5,424C 142.499,423.5 185.499,423.333 228.5,423.5 Z"/></g>
<g><path style="opacity:0.997" fill="#ddd1cc" d="M 426.5,442.5 C 425.095,446.236 422.429,448.569 418.5,449.5C 403.496,449.667 388.496,449.5 373.5,449C 371.91,447.954 370.41,446.787 369,445.5C 363.948,435.994 366.114,428.828 375.5,424C 389.5,423.333 403.5,423.333 417.5,424C 426.224,427.282 429.224,433.449 426.5,442.5 Z"/></g>
</svg>
