<?xml version="1.0" encoding="UTF-8"?>
<!DOCTYPE svg PUBLIC "-//W3C//DTD SVG 1.1//EN" "http://www.w3.org/Graphics/SVG/1.1/DTD/svg11.dtd">
<svg xmlns="http://www.w3.org/2000/svg" version="1.1" width="512px" height="512px" style="shape-rendering:geometricPrecision; text-rendering:geometricPrecision; image-rendering:optimizeQuality; fill-rule:evenodd; clip-rule:evenodd" xmlns:xlink="http://www.w3.org/1999/xlink">
<g><path style="opacity:0.971" fill="#55a3f8" d="M 232.5,-0.5 C 237.5,-0.5 242.5,-0.5 247.5,-0.5C 238.571,2.12991 230.238,6.12991 222.5,11.5C 187.31,16.5541 155.31,29.2208 126.5,49.5C 122.167,49.5 117.833,49.5 113.5,49.5C 110.167,49.5 106.833,49.5 103.5,49.5C 131.948,27.4936 163.948,12.6602 199.5,5C 210.576,2.74641 221.576,0.913081 232.5,-0.5 Z"/></g>
<g><path style="opacity:0.974" fill="#55a4f8" d="M 264.5,-0.5 C 269.167,-0.5 273.833,-0.5 278.5,-0.5C 313.698,3.13909 347.032,13.3058 378.5,30C 388.89,35.5796 398.556,42.0796 407.5,49.5C 399.833,49.5 392.167,49.5 384.5,49.5C 356.778,29.6263 326.111,17.6263 292.5,13.5C 284.206,6.68632 274.873,2.01966 264.5,-0.5 Z"/></g>
<g><path style="opacity:1" fill="#213f77" d="M 247.5,-0.5 C 253.167,-0.5 258.833,-0.5 264.5,-0.5C 274.873,2.01966 284.206,6.68632 292.5,13.5C 300.005,20.683 305.005,29.3497 307.5,39.5C 302.167,39.5 296.833,39.5 291.5,39.5C 284.96,23.1504 272.793,14.8171 255,14.5C 243.667,15.1665 234.334,19.8332 227,28.5C 224.628,31.9099 222.795,35.5766 221.5,39.5C 220.5,39.5 219.5,39.5 218.5,39.5C 214.167,39.5 209.833,39.5 205.5,39.5C 208.611,28.6108 214.278,19.2775 222.5,11.5C 230.238,6.12991 238.571,2.12991 247.5,-0.5 Z"/></g>
<g><path style="opacity:0.976" fill="#243e75" d="M 485.5,45.5 C 481.5,42.1667 477.5,38.8333 473.5,35.5C 468.106,30.1104 463.106,24.4437 458.5,18.5C 463.298,14.2033 467.965,9.70332 472.5,5C 474.971,4.2937 477.305,4.62703 479.5,6C 486,12.5 492.5,19 499,25.5C 499.667,27.8333 499.667,30.1667 499,32.5C 494.631,37.0367 490.131,41.3701 485.5,45.5 Z"/></g>
<g><path style="opacity:1" fill="#75b5f9" d="M 222.5,11.5 C 214.278,19.2775 208.611,28.6108 205.5,39.5C 201.429,39.2338 197.429,39.5672 193.5,40.5C 191.73,43.1934 191.063,46.1934 191.5,49.5C 169.833,49.5 148.167,49.5 126.5,49.5C 155.31,29.2208 187.31,16.5541 222.5,11.5 Z"/></g>
<g><path style="opacity:1" fill="#75b5f9" d="M 384.5,49.5 C 363.5,49.5 342.5,49.5 321.5,49.5C 321.937,46.1934 321.27,43.1934 319.5,40.5C 315.571,39.5672 311.571,39.2338 307.5,39.5C 305.005,29.3497 300.005,20.683 292.5,13.5C 326.111,17.6263 356.778,29.6263 384.5,49.5 Z"/></g>
<g><path style="opacity:1" fill="#75b4f8" d="M 291.5,39.5 C 268.167,39.5 244.833,39.5 221.5,39.5C 222.795,35.5766 224.628,31.9099 227,28.5C 234.334,19.8332 243.667,15.1665 255,14.5C 272.793,14.8171 284.96,23.1504 291.5,39.5 Z"/></g>
<g><path style="opacity:0.999" fill="#f34545" d="M 458.5,18.5 C 463.106,24.4437 468.106,30.1104 473.5,35.5C 472.448,35.3505 471.448,35.5172 470.5,36C 391.667,114.833 312.833,193.667 234,272.5C 233.51,273.793 233.343,275.127 233.5,276.5C 227.833,271.167 222.167,265.833 216.5,260.5C 215.167,258.5 215.167,256.5 216.5,254.5C 241.167,230.5 265.5,206.167 289.5,181.5C 294.833,176.833 299.833,171.833 304.5,166.5C 309.833,161.833 314.833,156.833 319.5,151.5C 324.833,146.833 329.833,141.833 334.5,136.5C 363.833,107.833 392.833,78.8333 421.5,49.5C 431.298,39.2016 441.298,29.0349 451.5,19C 453.786,17.3364 456.119,17.1697 458.5,18.5 Z"/></g>
<g><path style="opacity:0.996" fill="#fa5858" d="M 473.5,35.5 C 477.5,38.8333 481.5,42.1667 485.5,45.5C 486.537,47.7375 486.703,50.0709 486,52.5C 473.965,64.3682 462.131,76.3682 450.5,88.5C 445.226,92.1047 440.559,96.438 436.5,101.5C 424.167,113.167 412.167,125.167 400.5,137.5C 395.5,141.833 390.833,146.5 386.5,151.5C 352.167,185.167 318.167,219.167 284.5,253.5C 279.833,257.5 275.5,261.833 271.5,266.5C 270.5,266.833 269.833,267.5 269.5,268.5C 264.167,273.167 259.167,278.167 254.5,283.5C 252.704,284.793 251.037,286.293 249.5,288C 247.402,288.678 245.402,288.511 243.5,287.5C 240.167,283.833 236.833,280.167 233.5,276.5C 233.343,275.127 233.51,273.793 234,272.5C 312.833,193.667 391.667,114.833 470.5,36C 471.448,35.5172 472.448,35.3505 473.5,35.5 Z"/></g>
<g><path style="opacity:1" fill="#feb52d" d="M 205.5,39.5 C 209.833,39.5 214.167,39.5 218.5,39.5C 215.857,42.2336 214.857,45.5669 215.5,49.5C 206.249,52.2392 204.083,57.9058 209,66.5C 210.87,68.2189 213.037,69.2189 215.5,69.5C 214.857,73.4331 215.857,76.7664 218.5,79.5C 213.833,79.5 209.167,79.5 204.5,79.5C 201.15,79.665 197.817,79.4983 194.5,79C 193.333,78.5 192.5,77.6667 192,76.5C 191.5,67.5062 191.334,58.5062 191.5,49.5C 191.063,46.1934 191.73,43.1934 193.5,40.5C 197.429,39.5672 201.429,39.2338 205.5,39.5 Z"/></g>
<g><path style="opacity:1" fill="#fec04e" d="M 218.5,39.5 C 219.5,39.5 220.5,39.5 221.5,39.5C 244.833,39.5 268.167,39.5 291.5,39.5C 296.833,39.5 302.167,39.5 307.5,39.5C 311.571,39.2338 315.571,39.5672 319.5,40.5C 321.27,43.1934 321.937,46.1934 321.5,49.5C 321.666,58.5062 321.5,67.5062 321,76.5C 320.5,77.6667 319.667,78.5 318.5,79C 315.183,79.4983 311.85,79.665 308.5,79.5C 278.5,79.5 248.5,79.5 218.5,79.5C 215.857,76.7664 214.857,73.4331 215.5,69.5C 222.585,69.5813 226.252,66.0813 226.5,59C 225.738,52.6019 222.071,49.4353 215.5,49.5C 214.857,45.5669 215.857,42.2336 218.5,39.5 Z"/></g>
<g><path style="opacity:0.996" fill="#c6e0fb" d="M 103.5,49.5 C 106.833,49.5 110.167,49.5 113.5,49.5C 113.217,50.2891 112.717,50.9558 112,51.5C 111.5,72.164 111.333,92.8306 111.5,113.5C 102.318,113.173 93.3178,113.507 84.5,114.5C 82.7839,114.629 81.1172,114.962 79.5,115.5C 79.5,99.1667 79.5,82.8333 79.5,66.5C 79.3341,61.4889 79.5007,56.4889 80,51.5C 80.5,51 81,50.5 81.5,50C 88.8258,49.5003 96.1591,49.3337 103.5,49.5 Z"/></g>
<g><path style="opacity:1" fill="#e8f2fd" d="M 113.5,49.5 C 117.833,49.5 122.167,49.5 126.5,49.5C 148.167,49.5 169.833,49.5 191.5,49.5C 191.334,58.5062 191.5,67.5062 192,76.5C 192.5,77.6667 193.333,78.5 194.5,79C 197.817,79.4983 201.15,79.665 204.5,79.5C 204.335,82.8499 204.502,86.1832 205,89.5C 206.214,91.0488 207.714,92.2155 209.5,93C 240.833,93.6667 272.167,93.6667 303.5,93C 305.286,92.2155 306.786,91.0488 308,89.5C 308.498,86.1832 308.665,82.8499 308.5,79.5C 311.85,79.665 315.183,79.4983 318.5,79C 319.667,78.5 320.5,77.6667 321,76.5C 321.5,67.5062 321.666,58.5062 321.5,49.5C 342.5,49.5 363.5,49.5 384.5,49.5C 392.167,49.5 399.833,49.5 407.5,49.5C 412.167,49.5 416.833,49.5 421.5,49.5C 392.833,78.8333 363.833,107.833 334.5,136.5C 286.166,136.333 237.832,136.5 189.5,137C 184.014,142.081 184.347,146.748 190.5,151C 233.499,151.5 276.499,151.667 319.5,151.5C 314.833,156.833 309.833,161.833 304.5,166.5C 266.165,166.333 227.832,166.5 189.5,167C 184.014,172.081 184.347,176.748 190.5,181C 223.498,181.5 256.498,181.667 289.5,181.5C 265.5,206.167 241.167,230.5 216.5,254.5C 207.676,253.343 198.676,253.176 189.5,254C 183.75,259.508 184.417,264.175 191.5,268C 198.492,268.5 205.492,268.666 212.5,268.5C 211.025,272.783 209.025,276.783 206.5,280.5C 206.068,281.71 205.401,282.71 204.5,283.5C 199.489,283.334 194.489,283.501 189.5,284C 185.11,287.175 184.443,291.008 187.5,295.5C 190.285,297.568 193.285,298.902 196.5,299.5C 195.177,302.817 193.843,306.15 192.5,309.5C 192.833,311.167 193.833,312.167 195.5,312.5C 204.886,307.807 214.22,303.14 223.5,298.5C 267.835,298.667 312.168,298.5 356.5,298C 362.45,295.523 363.95,291.357 361,285.5C 360.25,284.874 359.416,284.374 358.5,284C 323.835,283.5 289.168,283.333 254.5,283.5C 259.167,278.167 264.167,273.167 269.5,268.5C 312.67,268.832 355.67,268.499 398.5,267.5C 404.487,265.387 405.987,261.387 403,255.5C 402.25,254.874 401.416,254.374 400.5,254C 361.835,253.5 323.168,253.333 284.5,253.5C 318.167,219.167 352.167,185.167 386.5,151.5C 391.628,151.888 396.628,151.388 401.5,150C 405.798,145.329 405.465,141.162 400.5,137.5C 412.167,125.167 424.167,113.167 436.5,101.5C 436.5,174.833 436.5,248.167 436.5,321.5C 427.167,321.5 417.833,321.5 408.5,321.5C 376.5,321.5 344.5,321.5 312.5,321.5C 287.833,321.5 263.167,321.5 238.5,321.5C 230.493,321.334 222.493,321.5 214.5,322C 212.667,323.167 211.167,324.667 210,326.5C 209.5,386.832 209.333,447.166 209.5,507.5C 177.5,507.5 145.5,507.5 113.5,507.5C 113.217,506.711 112.717,506.044 112,505.5C 111.5,484.836 111.333,464.169 111.5,443.5C 102.318,443.827 93.3178,443.493 84.5,442.5C 90.8333,442.5 97.1667,442.5 103.5,442.5C 119.503,442.667 135.503,442.5 151.5,442C 157.41,440.421 160.91,436.588 162,430.5C 162.969,407.437 162.635,384.437 161,361.5C 158.545,356.851 154.712,354.017 149.5,353C 136.838,352.5 124.171,352.333 111.5,352.5C 111.5,342.833 111.5,333.167 111.5,323.5C 124.504,323.667 137.504,323.5 150.5,323C 156.333,321.167 160.167,317.333 162,311.5C 162.667,289.167 162.667,266.833 162,244.5C 159.744,239.243 155.91,235.743 150.5,234C 137.504,233.5 124.504,233.333 111.5,233.5C 111.5,223.833 111.5,214.167 111.5,204.5C 124.171,204.667 136.838,204.5 149.5,204C 156.333,202.5 160.5,198.333 162,191.5C 162.667,169.5 162.667,147.5 162,125.5C 160.092,119.26 155.925,115.427 149.5,114C 136.838,113.5 124.171,113.333 111.5,113.5C 111.333,92.8306 111.5,72.164 112,51.5C 112.717,50.9558 113.217,50.2891 113.5,49.5 Z"/></g>
<g><path style="opacity:1" fill="#f29602" d="M 215.5,49.5 C 222.071,49.4353 225.738,52.6019 226.5,59C 226.252,66.0813 222.585,69.5813 215.5,69.5C 213.037,69.2189 210.87,68.2189 209,66.5C 204.083,57.9058 206.249,52.2392 215.5,49.5 Z"/></g>
<g><path style="opacity:1" fill="#f29603" d="M 292.5,49.5 C 304.854,49.5587 308.687,55.2254 304,66.5C 296.682,71.5112 291.016,70.1778 287,62.5C 285.831,56.8527 287.665,52.5194 292.5,49.5 Z"/></g>
<g><path style="opacity:0.997" fill="#213f76" d="M 79.5,66.5 C 79.5,82.8333 79.5,99.1667 79.5,115.5C 77.1128,117.913 74.9461,120.58 73,123.5C 72.3333,146.833 72.3333,170.167 73,193.5C 74.5814,196.916 76.7481,199.916 79.5,202.5C 79.5,213.5 79.5,224.5 79.5,235.5C 76.4406,237.397 74.2739,240.064 73,243.5C 72.3333,266.5 72.3333,289.5 73,312.5C 73.8397,316.5 76.0064,319.5 79.5,321.5C 79.5,332.5 79.5,343.5 79.5,354.5C 76.6452,356.506 74.4785,359.172 73,362.5C 72.3333,385.833 72.3333,409.167 73,432.5C 74.6107,435.938 76.7774,438.938 79.5,441.5C 79.5,457.5 79.5,473.5 79.5,489.5C 66.8289,489.667 54.1623,489.5 41.5,489C 41,488.5 40.5,488 40,487.5C 39.5,456.168 39.3334,424.835 39.5,393.5C 39.5,368.167 39.5,342.833 39.5,317.5C 39.5,265.167 39.5,212.833 39.5,160.5C 39.5,146.167 39.5,131.833 39.5,117.5C 39.3334,101.163 39.5001,84.8299 40,68.5C 40.5,68 41,67.5 41.5,67C 54.1623,66.5001 66.8289,66.3334 79.5,66.5 Z"/></g>
<g><path style="opacity:1" fill="#27437a" d="M 204.5,79.5 C 209.167,79.5 213.833,79.5 218.5,79.5C 248.5,79.5 278.5,79.5 308.5,79.5C 308.665,82.8499 308.498,86.1832 308,89.5C 306.786,91.0488 305.286,92.2155 303.5,93C 272.167,93.6667 240.833,93.6667 209.5,93C 207.714,92.2155 206.214,91.0488 205,89.5C 204.502,86.1832 204.335,82.8499 204.5,79.5 Z"/></g>
<g><path style="opacity:0.999" fill="#224077" d="M 450.5,88.5 C 458.635,98.2959 465.969,108.629 472.5,119.5C 472.5,134.167 472.5,148.833 472.5,163.5C 472.5,213.833 472.5,264.167 472.5,314.5C 472.5,316.833 472.5,319.167 472.5,321.5C 460.5,321.5 448.5,321.5 436.5,321.5C 436.5,248.167 436.5,174.833 436.5,101.5C 440.559,96.438 445.226,92.1047 450.5,88.5 Z"/></g>
<g><path style="opacity:1" fill="#6dc44a" d="M 84.5,114.5 C 90.8421,114.334 97.1754,114.5 103.5,115C 99.6119,117.222 96.7786,120.388 95,124.5C 94.5002,133.494 94.3336,142.494 94.5,151.5C 84.9697,149.529 81.4697,153.196 84,162.5C 87.7039,166.036 91.2039,169.702 94.5,173.5C 94.3338,179.842 94.5005,186.175 95,192.5C 96.3498,197.185 99.1832,200.685 103.5,203C 97.1754,203.5 90.8421,203.666 84.5,203.5C 82.7839,203.371 81.1172,203.038 79.5,202.5C 76.7481,199.916 74.5814,196.916 73,193.5C 72.3333,170.167 72.3333,146.833 73,123.5C 74.9461,120.58 77.1128,117.913 79.5,115.5C 81.1172,114.962 82.7839,114.629 84.5,114.5 Z"/></g>
<g><path style="opacity:1" fill="#84cd67" d="M 84.5,114.5 C 93.3178,113.507 102.318,113.173 111.5,113.5C 124.171,113.333 136.838,113.5 149.5,114C 155.925,115.427 160.092,119.26 162,125.5C 162.667,147.5 162.667,169.5 162,191.5C 160.5,198.333 156.333,202.5 149.5,204C 136.838,204.5 124.171,204.667 111.5,204.5C 102.318,204.827 93.3178,204.493 84.5,203.5C 90.8421,203.666 97.1754,203.5 103.5,203C 99.1832,200.685 96.3498,197.185 95,192.5C 94.5005,186.175 94.3338,179.842 94.5,173.5C 97.9995,176.831 101.666,179.998 105.5,183C 107.971,183.706 110.305,183.373 112.5,182C 125,169.5 137.5,157 150,144.5C 153.325,135.319 150.158,131.485 140.5,133C 129.667,143.833 118.833,154.667 108,165.5C 103.297,160.965 98.7967,156.298 94.5,151.5C 94.3336,142.494 94.5002,133.494 95,124.5C 96.7786,120.388 99.6119,117.222 103.5,115C 97.1754,114.5 90.8421,114.334 84.5,114.5 Z"/></g>
<g><path style="opacity:0.988" fill="#55a4f9" d="M 39.5,117.5 C 39.5,131.833 39.5,146.167 39.5,160.5C 24.6127,201.432 21.446,243.432 30,286.5C 32.1022,297.264 35.2689,307.597 39.5,317.5C 39.5,342.833 39.5,368.167 39.5,393.5C 17.0175,358.387 3.68417,320.054 -0.5,278.5C -0.5,263.167 -0.5,247.833 -0.5,232.5C 3.68354,190.948 17.0169,152.615 39.5,117.5 Z"/></g>
<g><path style="opacity:0.989" fill="#55a4f8" d="M 472.5,119.5 C 488.406,144.017 499.573,170.684 506,199.5C 508.083,210.602 509.916,221.602 511.5,232.5C 511.5,247.833 511.5,263.167 511.5,278.5C 509.605,292.854 506.939,307.187 503.5,321.5C 493.167,321.5 482.833,321.5 472.5,321.5C 472.5,319.167 472.5,316.833 472.5,314.5C 485.967,276.513 489.134,237.513 482,197.5C 480.019,185.718 476.852,174.384 472.5,163.5C 472.5,148.833 472.5,134.167 472.5,119.5 Z"/></g>
<g><path style="opacity:1" fill="#fdfefc" d="M 94.5,173.5 C 91.2039,169.702 87.7039,166.036 84,162.5C 81.4697,153.196 84.9697,149.529 94.5,151.5C 98.7967,156.298 103.297,160.965 108,165.5C 118.833,154.667 129.667,143.833 140.5,133C 150.158,131.485 153.325,135.319 150,144.5C 137.5,157 125,169.5 112.5,182C 110.305,183.373 107.971,183.706 105.5,183C 101.666,179.998 97.9995,176.831 94.5,173.5 Z"/></g>
<g><path style="opacity:1" fill="#a7cffb" d="M 334.5,136.5 C 329.833,141.833 324.833,146.833 319.5,151.5C 276.499,151.667 233.499,151.5 190.5,151C 184.347,146.748 184.014,142.081 189.5,137C 237.832,136.5 286.166,136.333 334.5,136.5 Z"/></g>
<g><path style="opacity:1" fill="#abcdf7" d="M 400.5,137.5 C 405.465,141.162 405.798,145.329 401.5,150C 396.628,151.388 391.628,151.888 386.5,151.5C 390.833,146.5 395.5,141.833 400.5,137.5 Z"/></g>
<g><path style="opacity:1" fill="#75b5f9" d="M 39.5,160.5 C 39.5,212.833 39.5,265.167 39.5,317.5C 35.2689,307.597 32.1022,297.264 30,286.5C 21.446,243.432 24.6127,201.432 39.5,160.5 Z"/></g>
<g><path style="opacity:1" fill="#75b5f9" d="M 472.5,163.5 C 476.852,174.384 480.019,185.718 482,197.5C 489.134,237.513 485.967,276.513 472.5,314.5C 472.5,264.167 472.5,213.833 472.5,163.5 Z"/></g>
<g><path style="opacity:1" fill="#a7cffb" d="M 304.5,166.5 C 299.833,171.833 294.833,176.833 289.5,181.5C 256.498,181.667 223.498,181.5 190.5,181C 184.347,176.748 184.014,172.081 189.5,167C 227.832,166.5 266.165,166.333 304.5,166.5 Z"/></g>
<g><path style="opacity:1" fill="#c6dffa" d="M 79.5,202.5 C 81.1172,203.038 82.7839,203.371 84.5,203.5C 93.3178,204.493 102.318,204.827 111.5,204.5C 111.5,214.167 111.5,223.833 111.5,233.5C 109.167,233.5 106.833,233.5 104.5,233.5C 97.1591,233.334 89.8258,233.5 82.5,234C 81.4734,234.513 80.4734,235.013 79.5,235.5C 79.5,224.5 79.5,213.5 79.5,202.5 Z"/></g>
<g><path style="opacity:1" fill="#6dc44a" d="M 104.5,233.5 C 100.189,235.647 97.0223,238.98 95,243.5C 94.8297,252.676 94.3297,261.676 93.5,270.5C 83.5031,270.313 80.6698,274.646 85,283.5C 88.3709,286.703 91.5375,290.036 94.5,293.5C 94.1095,300.921 94.6095,308.254 96,315.5C 98.3247,319.235 101.491,321.901 105.5,323.5C 98.1591,323.666 90.8258,323.5 83.5,323C 82.0993,322.59 80.766,322.09 79.5,321.5C 76.0064,319.5 73.8397,316.5 73,312.5C 72.3333,289.5 72.3333,266.5 73,243.5C 74.2739,240.064 76.4406,237.397 79.5,235.5C 80.4734,235.013 81.4734,234.513 82.5,234C 89.8258,233.5 97.1591,233.334 104.5,233.5 Z"/></g>
<g><path style="opacity:1" fill="#82cd65" d="M 104.5,233.5 C 106.833,233.5 109.167,233.5 111.5,233.5C 124.504,233.333 137.504,233.5 150.5,234C 155.91,235.743 159.744,239.243 162,244.5C 162.667,266.833 162.667,289.167 162,311.5C 160.167,317.333 156.333,321.167 150.5,323C 137.504,323.5 124.504,323.667 111.5,323.5C 109.5,323.5 107.5,323.5 105.5,323.5C 101.491,321.901 98.3247,319.235 96,315.5C 94.6095,308.254 94.1095,300.921 94.5,293.5C 97.2971,295.795 99.9638,298.295 102.5,301C 105.366,302.457 108.366,302.79 111.5,302C 125.387,289.446 138.554,276.279 151,262.5C 151.989,253.489 148.156,250.323 139.5,253C 129,263.5 118.5,274 108,284.5C 103.271,279.603 98.438,274.936 93.5,270.5C 94.3297,261.676 94.8297,252.676 95,243.5C 97.0223,238.98 100.189,235.647 104.5,233.5 Z"/></g>
<g><path style="opacity:1" fill="#fafdf9" d="M 94.5,293.5 C 91.5375,290.036 88.3709,286.703 85,283.5C 80.6698,274.646 83.5031,270.313 93.5,270.5C 98.438,274.936 103.271,279.603 108,284.5C 118.5,274 129,263.5 139.5,253C 148.156,250.323 151.989,253.489 151,262.5C 138.554,276.279 125.387,289.446 111.5,302C 108.366,302.79 105.366,302.457 102.5,301C 99.9638,298.295 97.2971,295.795 94.5,293.5 Z"/></g>
<g><path style="opacity:1" fill="#a8d0fb" d="M 216.5,254.5 C 215.167,256.5 215.167,258.5 216.5,260.5C 215.674,263.485 214.341,266.151 212.5,268.5C 205.492,268.666 198.492,268.5 191.5,268C 184.417,264.175 183.75,259.508 189.5,254C 198.676,253.176 207.676,253.343 216.5,254.5 Z"/></g>
<g><path style="opacity:1" fill="#a7cffb" d="M 284.5,253.5 C 323.168,253.333 361.835,253.5 400.5,254C 401.416,254.374 402.25,254.874 403,255.5C 405.987,261.387 404.487,265.387 398.5,267.5C 355.997,267.832 313.663,267.499 271.5,266.5C 275.5,261.833 279.833,257.5 284.5,253.5 Z"/></g>
<g><path style="opacity:1" fill="#263f76" d="M 216.5,260.5 C 222.167,265.833 227.833,271.167 233.5,276.5C 236.833,280.167 240.167,283.833 243.5,287.5C 237.359,291.072 231.026,294.405 224.5,297.5C 221.068,289.066 215.068,283.4 206.5,280.5C 209.025,276.783 211.025,272.783 212.5,268.5C 214.341,266.151 215.674,263.485 216.5,260.5 Z"/></g>
<g><path style="opacity:1" fill="#c6dffc" d="M 271.5,266.5 C 313.663,267.499 355.997,267.832 398.5,267.5C 355.67,268.499 312.67,268.832 269.5,268.5C 269.833,267.5 270.5,266.833 271.5,266.5 Z"/></g>
<g><path style="opacity:1" fill="#1c325e" d="M 206.5,280.5 C 215.068,283.4 221.068,289.066 224.5,297.5C 223.833,297.5 223.5,297.833 223.5,298.5C 214.22,303.14 204.886,307.807 195.5,312.5C 193.833,312.167 192.833,311.167 192.5,309.5C 193.843,306.15 195.177,302.817 196.5,299.5C 199.674,294.484 202.341,289.151 204.5,283.5C 205.401,282.71 206.068,281.71 206.5,280.5 Z"/></g>
<g><path style="opacity:1" fill="#a7cffb" d="M 204.5,283.5 C 202.341,289.151 199.674,294.484 196.5,299.5C 193.285,298.902 190.285,297.568 187.5,295.5C 184.443,291.008 185.11,287.175 189.5,284C 194.489,283.501 199.489,283.334 204.5,283.5 Z"/></g>
<g><path style="opacity:1" fill="#a9d0fb" d="M 254.5,283.5 C 289.168,283.333 323.835,283.5 358.5,284C 359.416,284.374 360.25,284.874 361,285.5C 363.95,291.357 362.45,295.523 356.5,298C 312.168,298.5 267.835,298.667 223.5,298.5C 223.5,297.833 223.833,297.5 224.5,297.5C 231.026,294.405 237.359,291.072 243.5,287.5C 245.402,288.511 247.402,288.678 249.5,288C 251.037,286.293 252.704,284.793 254.5,283.5 Z"/></g>
<g><path style="opacity:0.998" fill="#feb52d" d="M 238.5,321.5 C 236.866,322.972 235.366,324.638 234,326.5C 233.833,388.001 233.333,449.335 232.5,510.5C 224.685,510.336 217.019,509.336 209.5,507.5C 209.333,447.166 209.5,386.832 210,326.5C 211.167,324.667 212.667,323.167 214.5,322C 222.493,321.5 230.493,321.334 238.5,321.5 Z"/></g>
<g><path style="opacity:0.996" fill="#fec04e" d="M 238.5,321.5 C 263.167,321.5 287.833,321.5 312.5,321.5C 312.5,353.167 312.5,384.833 312.5,416.5C 315.572,416.817 318.572,416.484 321.5,415.5C 324.833,411.167 328.167,406.833 331.5,402.5C 335.036,407.052 338.703,411.552 342.5,416C 345.227,416.818 347.894,416.652 350.5,415.5C 353.603,410.948 356.936,406.614 360.5,402.5C 364.064,406.614 367.397,410.948 370.5,415.5C 373.5,416.833 376.5,416.833 379.5,415.5C 382.603,410.948 385.936,406.614 389.5,402.5C 392.833,406.833 396.167,411.167 399.5,415.5C 402.428,416.484 405.428,416.817 408.5,416.5C 408.5,384.833 408.5,353.167 408.5,321.5C 417.833,321.5 427.167,321.5 436.5,321.5C 448.5,321.5 460.5,321.5 472.5,321.5C 482.833,321.5 493.167,321.5 503.5,321.5C 480.557,401.205 431.224,458.039 355.5,492C 330.623,502.135 304.957,508.635 278.5,511.5C 263.167,511.5 247.833,511.5 232.5,511.5C 232.5,511.167 232.5,510.833 232.5,510.5C 233.333,449.335 233.833,388.001 234,326.5C 235.366,324.638 236.866,322.972 238.5,321.5 Z"/></g>
<g><path style="opacity:1" fill="#f29500" d="M 312.5,321.5 C 344.5,321.5 376.5,321.5 408.5,321.5C 408.5,353.167 408.5,384.833 408.5,416.5C 405.428,416.817 402.428,416.484 399.5,415.5C 396.167,411.167 392.833,406.833 389.5,402.5C 385.936,406.614 382.603,410.948 379.5,415.5C 376.5,416.833 373.5,416.833 370.5,415.5C 367.397,410.948 364.064,406.614 360.5,402.5C 356.936,406.614 353.603,410.948 350.5,415.5C 347.894,416.652 345.227,416.818 342.5,416C 338.703,411.552 335.036,407.052 331.5,402.5C 328.167,406.833 324.833,411.167 321.5,415.5C 318.572,416.484 315.572,416.817 312.5,416.5C 312.5,384.833 312.5,353.167 312.5,321.5 Z"/></g>
<g><path style="opacity:1" fill="#c6e0fb" d="M 79.5,321.5 C 80.766,322.09 82.0993,322.59 83.5,323C 90.8258,323.5 98.1591,323.666 105.5,323.5C 107.5,323.5 109.5,323.5 111.5,323.5C 111.5,333.167 111.5,342.833 111.5,352.5C 101.985,352.173 92.6517,352.506 83.5,353.5C 82.1667,353.833 80.8333,354.167 79.5,354.5C 79.5,343.5 79.5,332.5 79.5,321.5 Z"/></g>
<g><path style="opacity:1" fill="#6dc44a" d="M 83.5,353.5 C 90.175,353.334 96.8417,353.5 103.5,354C 99.6119,356.222 96.7786,359.388 95,363.5C 94.5002,372.494 94.3336,381.494 94.5,390.5C 84.9697,388.529 81.4697,392.196 84,401.5C 87.7039,405.036 91.2039,408.702 94.5,412.5C 94.3338,418.842 94.5005,425.175 95,431.5C 96.5528,436.212 99.3862,439.879 103.5,442.5C 97.1667,442.5 90.8333,442.5 84.5,442.5C 82.7839,442.371 81.1172,442.038 79.5,441.5C 76.7774,438.938 74.6107,435.938 73,432.5C 72.3333,409.167 72.3333,385.833 73,362.5C 74.4785,359.172 76.6452,356.506 79.5,354.5C 80.8333,354.167 82.1667,353.833 83.5,353.5 Z"/></g>
<g><path style="opacity:1" fill="#83cd66" d="M 83.5,353.5 C 92.6517,352.506 101.985,352.173 111.5,352.5C 124.171,352.333 136.838,352.5 149.5,353C 154.712,354.017 158.545,356.851 161,361.5C 162.635,384.437 162.969,407.437 162,430.5C 160.91,436.588 157.41,440.421 151.5,442C 135.503,442.5 119.503,442.667 103.5,442.5C 99.3862,439.879 96.5528,436.212 95,431.5C 94.5005,425.175 94.3338,418.842 94.5,412.5C 97.9995,415.831 101.666,418.998 105.5,422C 107.971,422.706 110.305,422.373 112.5,421C 125,408.5 137.5,396 150,383.5C 153.325,374.319 150.158,370.485 140.5,372C 129.667,382.833 118.833,393.667 108,404.5C 103.297,399.965 98.7967,395.298 94.5,390.5C 94.3336,381.494 94.5002,372.494 95,363.5C 96.7786,359.388 99.6119,356.222 103.5,354C 96.8417,353.5 90.175,353.334 83.5,353.5 Z"/></g>
<g><path style="opacity:1" fill="#fdfefc" d="M 94.5,412.5 C 91.2039,408.702 87.7039,405.036 84,401.5C 81.4697,392.196 84.9697,388.529 94.5,390.5C 98.7967,395.298 103.297,399.965 108,404.5C 118.833,393.667 129.667,382.833 140.5,372C 150.158,370.485 153.325,374.319 150,383.5C 137.5,396 125,408.5 112.5,421C 110.305,422.373 107.971,422.706 105.5,422C 101.666,418.998 97.9995,415.831 94.5,412.5 Z"/></g>
<g><path style="opacity:0.995" fill="#c6e0fb" d="M 79.5,441.5 C 81.1172,442.038 82.7839,442.371 84.5,442.5C 93.3178,443.493 102.318,443.827 111.5,443.5C 111.333,464.169 111.5,484.836 112,505.5C 112.717,506.044 113.217,506.711 113.5,507.5C 102.828,507.667 92.1615,507.5 81.5,507C 81,506.5 80.5,506 80,505.5C 79.5006,500.177 79.334,494.844 79.5,489.5C 79.5,473.5 79.5,457.5 79.5,441.5 Z"/></g>
</svg>
