<?xml version="1.0" encoding="UTF-8"?>
<!DOCTYPE svg PUBLIC "-//W3C//DTD SVG 1.1//EN" "http://www.w3.org/Graphics/SVG/1.1/DTD/svg11.dtd">
<svg xmlns="http://www.w3.org/2000/svg" version="1.1" width="512px" height="512px" style="shape-rendering:geometricPrecision; text-rendering:geometricPrecision; image-rendering:optimizeQuality; fill-rule:evenodd; clip-rule:evenodd" xmlns:xlink="http://www.w3.org/1999/xlink">
<g><path style="opacity:1" fill="#0593fc" d="M 67.5,-0.5 C 84.5,-0.5 101.5,-0.5 118.5,-0.5C 116.193,0.977392 114.36,2.97739 113,5.5C 112.5,20.4963 112.333,35.4963 112.5,50.5C 95.8333,50.5 79.1667,50.5 62.5,50.5C 62.3334,35.163 62.5001,19.8297 63,4.5C 64.3657,2.63834 65.8657,0.971672 67.5,-0.5 Z"/></g>
<g><path style="opacity:1" fill="#25a5fd" d="M 118.5,-0.5 C 199.5,-0.5 280.5,-0.5 361.5,-0.5C 363.134,0.971672 364.634,2.63834 366,4.5C 366.5,18.8295 366.667,33.1628 366.5,47.5C 366.5,48.5 366.5,49.5 366.5,50.5C 281.833,50.5 197.167,50.5 112.5,50.5C 112.333,35.4963 112.5,20.4963 113,5.5C 114.36,2.97739 116.193,0.977392 118.5,-0.5 Z"/></g>
<g><path style="opacity:0.993" fill="#b3dafe" d="M 366.5,47.5 C 444.745,89.9041 489.245,155.571 500,244.5C 505.268,309.142 488.102,366.809 448.5,417.5C 448.667,325.499 448.5,233.499 448,141.5C 446.52,138.337 444.02,136.504 440.5,136C 415.836,135.5 391.169,135.333 366.5,135.5C 366.5,107.167 366.5,78.8333 366.5,50.5C 366.5,49.5 366.5,48.5 366.5,47.5 Z"/></g>
<g><path style="opacity:1" fill="#f5f3f3" d="M 62.5,50.5 C 79.1667,50.5 95.8333,50.5 112.5,50.5C 112.5,59.8333 112.5,69.1667 112.5,78.5C 101.454,80.5743 95.4541,87.241 94.5,98.5C 94.9118,103.236 96.4118,107.57 99,111.5C 103.703,116.035 108.203,120.702 112.5,125.5C 112.5,142.5 112.5,159.5 112.5,176.5C 140.005,176.169 167.338,176.502 194.5,177.5C 162.498,177.333 130.498,177.5 98.5,178C 94.5,182.333 94.5,186.667 98.5,191C 130.498,191.5 162.498,191.667 194.5,191.5C 167.338,192.498 140.005,192.831 112.5,192.5C 112.5,198.167 112.5,203.833 112.5,209.5C 162.003,209.168 211.336,209.501 260.5,210.5C 206.499,210.333 152.499,210.5 98.5,211C 94.5,215.333 94.5,219.667 98.5,224C 152.499,224.5 206.499,224.667 260.5,224.5C 211.336,225.499 162.003,225.832 112.5,225.5C 112.5,242.167 112.5,258.833 112.5,275.5C 162.003,275.168 211.336,275.501 260.5,276.5C 206.499,276.333 152.499,276.5 98.5,277C 94.5,281.333 94.5,285.667 98.5,290C 152.499,290.5 206.499,290.667 260.5,290.5C 211.336,291.499 162.003,291.832 112.5,291.5C 112.5,297.167 112.5,302.833 112.5,308.5C 140.005,308.169 167.338,308.502 194.5,309.5C 162.498,309.333 130.498,309.5 98.5,310C 94.5,314.333 94.5,318.667 98.5,323C 130.498,323.5 162.498,323.667 194.5,323.5C 167.338,324.498 140.005,324.831 112.5,324.5C 112.5,371.5 112.5,418.5 112.5,465.5C 92.9178,452.585 76.2511,436.585 62.5,417.5C 62.5,316.833 62.5,216.167 62.5,115.5C 62.5,93.8333 62.5,72.1667 62.5,50.5 Z"/></g>
<g><path style="opacity:1" fill="#fefefe" d="M 112.5,50.5 C 197.167,50.5 281.833,50.5 366.5,50.5C 366.5,78.8333 366.5,107.167 366.5,135.5C 357.167,135.5 347.833,135.5 338.5,135.5C 325.163,135.333 311.829,135.5 298.5,136C 296,137.167 294.167,139 293,141.5C 292.333,241.167 292.333,340.833 293,440.5C 294.167,443 296,444.833 298.5,446C 312.163,446.5 325.829,446.667 339.5,446.5C 348.5,446.5 357.5,446.5 366.5,446.5C 366.666,455.173 366.5,463.84 366,472.5C 365.5,473.667 364.667,474.5 363.5,475C 284.834,475.5 206.167,475.667 127.5,475.5C 121.951,472.944 116.951,469.61 112.5,465.5C 112.5,418.5 112.5,371.5 112.5,324.5C 140.005,324.831 167.338,324.498 194.5,323.5C 198.083,322.578 199.75,320.244 199.5,316.5C 199.75,312.756 198.083,310.422 194.5,309.5C 167.338,308.502 140.005,308.169 112.5,308.5C 112.5,302.833 112.5,297.167 112.5,291.5C 162.003,291.832 211.336,291.499 260.5,290.5C 264.083,289.578 265.75,287.244 265.5,283.5C 265.75,279.756 264.083,277.422 260.5,276.5C 211.336,275.501 162.003,275.168 112.5,275.5C 112.5,258.833 112.5,242.167 112.5,225.5C 162.003,225.832 211.336,225.499 260.5,224.5C 264.083,223.578 265.75,221.244 265.5,217.5C 265.75,213.756 264.083,211.422 260.5,210.5C 211.336,209.501 162.003,209.168 112.5,209.5C 112.5,203.833 112.5,198.167 112.5,192.5C 140.005,192.831 167.338,192.498 194.5,191.5C 198.083,190.578 199.75,188.244 199.5,184.5C 199.75,180.756 198.083,178.422 194.5,177.5C 167.338,176.502 140.005,176.169 112.5,176.5C 112.5,159.5 112.5,142.5 112.5,125.5C 113.833,126.5 115.167,127.5 116.5,128.5C 123.034,136.201 130.367,143.034 138.5,149C 144.866,151.328 150.866,150.828 156.5,147.5C 163.133,143.918 166.466,138.252 166.5,130.5C 166.458,127.741 165.958,125.075 165,122.5C 161.635,118.307 158.135,114.307 154.5,110.5C 151.5,106.833 148.167,103.5 144.5,100.5C 138.798,93.7967 132.464,87.7967 125.5,82.5C 121.745,79.5837 117.412,78.2503 112.5,78.5C 112.5,69.1667 112.5,59.8333 112.5,50.5 Z"/></g>
<g><path style="opacity:1" fill="#e8b909" d="M 112.5,78.5 C 117.412,78.2503 121.745,79.5837 125.5,82.5C 119.016,85.9492 115.682,91.4492 115.5,99C 116.546,107.189 120.546,113.356 127.5,117.5C 124.167,121.5 120.5,125.167 116.5,128.5C 115.167,127.5 113.833,126.5 112.5,125.5C 108.203,120.702 103.703,116.035 99,111.5C 96.4118,107.57 94.9118,103.236 94.5,98.5C 95.4541,87.241 101.454,80.5743 112.5,78.5 Z"/></g>
<g><path style="opacity:1" fill="#f8c60d" d="M 125.5,82.5 C 132.464,87.7967 138.798,93.7967 144.5,100.5C 139.167,106.5 133.5,112.167 127.5,117.5C 120.546,113.356 116.546,107.189 115.5,99C 115.682,91.4492 119.016,85.9492 125.5,82.5 Z"/></g>
<g><path style="opacity:1" fill="#35b686" d="M 222.5,89.5 C 257.835,89.3333 293.168,89.5 328.5,90C 333.224,92.4353 334.724,96.2686 333,101.5C 331.786,103.049 330.286,104.215 328.5,105C 293.167,105.667 257.833,105.667 222.5,105C 217.776,102.565 216.276,98.7314 218,93.5C 219.397,91.9297 220.897,90.5964 222.5,89.5 Z"/></g>
<g><path style="opacity:1" fill="#12a86e" d="M 144.5,100.5 C 148.167,103.5 151.5,106.833 154.5,110.5C 149.515,116.488 144.515,122.488 139.5,128.5C 144.788,135.124 150.455,141.457 156.5,147.5C 150.866,150.828 144.866,151.328 138.5,149C 130.367,143.034 123.034,136.201 116.5,128.5C 120.5,125.167 124.167,121.5 127.5,117.5C 133.5,112.167 139.167,106.5 144.5,100.5 Z"/></g>
<g><path style="opacity:1" fill="#25b280" d="M 154.5,110.5 C 158.135,114.307 161.635,118.307 165,122.5C 165.958,125.075 166.458,127.741 166.5,130.5C 166.466,138.252 163.133,143.918 156.5,147.5C 150.455,141.457 144.788,135.124 139.5,128.5C 144.515,122.488 149.515,116.488 154.5,110.5 Z"/></g>
<g><path style="opacity:0.992" fill="#b3dafe" d="M 62.5,115.5 C 62.5,216.167 62.5,316.833 62.5,417.5C 22.8987,366.811 5.73206,309.144 11,244.5C 15.3837,196.14 32.5504,153.14 62.5,115.5 Z"/></g>
<g><path style="opacity:1" fill="#9c9c9b" d="M 338.5,135.5 C 336.193,136.977 334.36,138.977 333,141.5C 332.5,150.16 332.334,158.827 332.5,167.5C 317.696,172.109 311.196,182.109 313,197.5C 314.402,201.975 316.569,205.975 319.5,209.5C 323.059,213.115 327.393,215.449 332.5,216.5C 332.5,226.833 332.5,237.167 332.5,247.5C 317.696,252.109 311.196,262.109 313,277.5C 314.402,281.975 316.569,285.975 319.5,289.5C 323.059,293.115 327.393,295.449 332.5,296.5C 332.5,306.833 332.5,317.167 332.5,327.5C 317.696,332.109 311.196,342.109 313,357.5C 314.402,361.975 316.569,365.975 319.5,369.5C 323.059,373.115 327.393,375.449 332.5,376.5C 332.333,397.169 332.5,417.836 333,438.5C 333.583,442.572 335.75,445.239 339.5,446.5C 325.829,446.667 312.163,446.5 298.5,446C 296,444.833 294.167,443 293,440.5C 292.333,340.833 292.333,241.167 293,141.5C 294.167,139 296,137.167 298.5,136C 311.829,135.5 325.163,135.333 338.5,135.5 Z"/></g>
<g><path style="opacity:1" fill="#acacab" d="M 338.5,135.5 C 347.833,135.5 357.167,135.5 366.5,135.5C 391.169,135.333 415.836,135.5 440.5,136C 444.02,136.504 446.52,138.337 448,141.5C 448.5,233.499 448.667,325.499 448.5,417.5C 448.666,425.507 448.5,433.507 448,441.5C 446.833,443.333 445.333,444.833 443.5,446C 436.508,446.5 429.508,446.666 422.5,446.5C 403.833,446.5 385.167,446.5 366.5,446.5C 357.5,446.5 348.5,446.5 339.5,446.5C 335.75,445.239 333.583,442.572 333,438.5C 332.5,417.836 332.333,397.169 332.5,376.5C 352.412,377.088 362.245,367.422 362,347.5C 360.924,341.667 358.091,337.001 353.5,333.5C 347.475,328.573 340.475,326.573 332.5,327.5C 332.5,317.167 332.5,306.833 332.5,296.5C 352.412,297.088 362.245,287.422 362,267.5C 360.924,261.667 358.091,257.001 353.5,253.5C 347.475,248.573 340.475,246.573 332.5,247.5C 332.5,237.167 332.5,226.833 332.5,216.5C 352.412,217.088 362.245,207.422 362,187.5C 360.924,181.667 358.091,177.001 353.5,173.5C 347.475,168.573 340.475,166.573 332.5,167.5C 332.334,158.827 332.5,150.16 333,141.5C 334.36,138.977 336.193,136.977 338.5,135.5 Z"/></g>
<g><path style="opacity:1" fill="#f8c503" d="M 332.5,167.5 C 340.475,166.573 347.475,168.573 353.5,173.5C 353.649,174.552 353.483,175.552 353,176.5C 341.965,187.702 330.798,198.702 319.5,209.5C 316.569,205.975 314.402,201.975 313,197.5C 311.196,182.109 317.696,172.109 332.5,167.5 Z"/></g>
<g><path style="opacity:1" fill="#f8c507" d="M 420.5,174.5 C 409.448,186.554 397.781,197.887 385.5,208.5C 375.684,196.163 376.35,184.33 387.5,173C 395.421,167.309 404.087,165.975 413.5,169C 416.595,169.935 418.929,171.769 420.5,174.5 Z"/></g>
<g><path style="opacity:1" fill="#e7b704" d="M 353.5,173.5 C 358.091,177.001 360.924,181.667 362,187.5C 362.245,207.422 352.412,217.088 332.5,216.5C 327.393,215.449 323.059,213.115 319.5,209.5C 330.798,198.702 341.965,187.702 353,176.5C 353.483,175.552 353.649,174.552 353.5,173.5 Z"/></g>
<g><path style="opacity:1" fill="#e7b804" d="M 420.5,174.5 C 426.065,178.636 428.732,184.303 428.5,191.5C 427.823,207.51 419.49,215.843 403.5,216.5C 395.969,217.064 389.969,214.397 385.5,208.5C 397.781,197.887 409.448,186.554 420.5,174.5 Z"/></g>
<g><path style="opacity:1" fill="#838383" d="M 194.5,177.5 C 198.083,178.422 199.75,180.756 199.5,184.5C 199.75,188.244 198.083,190.578 194.5,191.5C 162.498,191.667 130.498,191.5 98.5,191C 94.5,186.667 94.5,182.333 98.5,178C 130.498,177.5 162.498,177.333 194.5,177.5 Z"/></g>
<g><path style="opacity:1" fill="#838383" d="M 260.5,210.5 C 264.083,211.422 265.75,213.756 265.5,217.5C 265.75,221.244 264.083,223.578 260.5,224.5C 206.499,224.667 152.499,224.5 98.5,224C 94.5,219.667 94.5,215.333 98.5,211C 152.499,210.5 206.499,210.333 260.5,210.5 Z"/></g>
<g><path style="opacity:1" fill="#f8c503" d="M 332.5,247.5 C 340.475,246.573 347.475,248.573 353.5,253.5C 353.649,254.552 353.483,255.552 353,256.5C 341.965,267.702 330.798,278.702 319.5,289.5C 316.569,285.975 314.402,281.975 313,277.5C 311.196,262.109 317.696,252.109 332.5,247.5 Z"/></g>
<g><path style="opacity:1" fill="#f8c507" d="M 403.5,247.5 C 403.5,263.833 403.5,280.167 403.5,296.5C 388.247,295.247 379.913,286.914 378.5,271.5C 380.344,256.655 388.677,248.655 403.5,247.5 Z"/></g>
<g><path style="opacity:1" fill="#e7b803" d="M 403.5,247.5 C 418.978,248.07 427.312,256.07 428.5,271.5C 427.818,287.515 419.485,295.848 403.5,296.5C 403.5,280.167 403.5,263.833 403.5,247.5 Z"/></g>
<g><path style="opacity:1" fill="#e7b704" d="M 353.5,253.5 C 358.091,257.001 360.924,261.667 362,267.5C 362.245,287.422 352.412,297.088 332.5,296.5C 327.393,295.449 323.059,293.115 319.5,289.5C 330.798,278.702 341.965,267.702 353,256.5C 353.483,255.552 353.649,254.552 353.5,253.5 Z"/></g>
<g><path style="opacity:1" fill="#9c9c9c" d="M 260.5,276.5 C 264.083,277.422 265.75,279.756 265.5,283.5C 265.75,287.244 264.083,289.578 260.5,290.5C 206.499,290.667 152.499,290.5 98.5,290C 94.5,285.667 94.5,281.333 98.5,277C 152.499,276.5 206.499,276.333 260.5,276.5 Z"/></g>
<g><path style="opacity:1" fill="#9c9c9c" d="M 194.5,309.5 C 198.083,310.422 199.75,312.756 199.5,316.5C 199.75,320.244 198.083,322.578 194.5,323.5C 162.498,323.667 130.498,323.5 98.5,323C 94.5,318.667 94.5,314.333 98.5,310C 130.498,309.5 162.498,309.333 194.5,309.5 Z"/></g>
<g><path style="opacity:1" fill="#f8c503" d="M 332.5,327.5 C 340.475,326.573 347.475,328.573 353.5,333.5C 353.649,334.552 353.483,335.552 353,336.5C 341.965,347.702 330.798,358.702 319.5,369.5C 316.569,365.975 314.402,361.975 313,357.5C 311.196,342.109 317.696,332.109 332.5,327.5 Z"/></g>
<g><path style="opacity:1" fill="#f8c507" d="M 420.5,334.5 C 409.448,346.554 397.781,357.887 385.5,368.5C 375.684,356.163 376.35,344.33 387.5,333C 395.421,327.309 404.087,325.975 413.5,329C 416.595,329.935 418.929,331.769 420.5,334.5 Z"/></g>
<g><path style="opacity:1" fill="#e7b704" d="M 353.5,333.5 C 358.091,337.001 360.924,341.667 362,347.5C 362.245,367.422 352.412,377.088 332.5,376.5C 327.393,375.449 323.059,373.115 319.5,369.5C 330.798,358.702 341.965,347.702 353,336.5C 353.483,335.552 353.649,334.552 353.5,333.5 Z"/></g>
<g><path style="opacity:1" fill="#e7b804" d="M 420.5,334.5 C 426.065,338.636 428.732,344.303 428.5,351.5C 427.823,367.51 419.49,375.843 403.5,376.5C 395.969,377.064 389.969,374.397 385.5,368.5C 397.781,357.887 409.448,346.554 420.5,334.5 Z"/></g>
<g><path style="opacity:1" fill="#cfcfcf" d="M 118.5,342.5 C 166.501,342.333 214.501,342.5 262.5,343C 265.394,345.909 266.227,349.409 265,353.5C 263.786,355.049 262.286,356.215 260.5,357C 213.833,357.667 167.167,357.667 120.5,357C 115.776,354.565 114.276,350.731 116,345.5C 117.045,344.627 117.878,343.627 118.5,342.5 Z"/></g>
<g><path style="opacity:1" fill="#cfcfcf" d="M 118.5,375.5 C 166.501,375.333 214.501,375.5 262.5,376C 265.394,378.909 266.227,382.409 265,386.5C 263.786,388.049 262.286,389.215 260.5,390C 213.833,390.667 167.167,390.667 120.5,390C 115.776,387.565 114.276,383.731 116,378.5C 117.045,377.627 117.878,376.627 118.5,375.5 Z"/></g>
<g><path style="opacity:1" fill="#9c9c9c" d="M 340.5,399.5 C 360.503,399.333 380.503,399.5 400.5,400C 403.394,402.909 404.227,406.409 403,410.5C 401.786,412.049 400.286,413.215 398.5,414C 379.833,414.667 361.167,414.667 342.5,414C 337.776,411.565 336.276,407.731 338,402.5C 339.045,401.627 339.878,400.627 340.5,399.5 Z"/></g>
<g><path style="opacity:0.988" fill="#b3dafe" d="M 366.5,446.5 C 385.167,446.5 403.833,446.5 422.5,446.5C 381.491,484.165 333.158,505.831 277.5,511.5C 262.833,511.5 248.167,511.5 233.5,511.5C 195.37,507.679 160.037,495.679 127.5,475.5C 206.167,475.667 284.834,475.5 363.5,475C 364.667,474.5 365.5,473.667 366,472.5C 366.5,463.84 366.666,455.173 366.5,446.5 Z"/></g>
</svg>
