<?xml version="1.0" encoding="UTF-8"?>
<!DOCTYPE svg PUBLIC "-//W3C//DTD SVG 1.1//EN" "http://www.w3.org/Graphics/SVG/1.1/DTD/svg11.dtd">
<svg xmlns="http://www.w3.org/2000/svg" version="1.1" width="512px" height="512px" style="shape-rendering:geometricPrecision; text-rendering:geometricPrecision; image-rendering:optimizeQuality; fill-rule:evenodd; clip-rule:evenodd" xmlns:xlink="http://www.w3.org/1999/xlink">
<g><path style="opacity:0.996" fill="#f0f4f8" d="M 416.5,113.5 C 391.833,113.5 367.167,113.5 342.5,113.5C 282.994,104.29 223.494,94.9571 164,85.5C 154.277,86.3672 147.611,91.3672 144,100.5C 143.273,105.863 142.439,111.197 141.5,116.5C 133.648,116.825 125.982,116.492 118.5,115.5C 141.293,90.8628 166.626,69.3628 194.5,51C 230.511,32.2332 268.178,28.2332 307.5,39C 351.749,52.4424 388.083,77.2758 416.5,113.5 Z"/></g>
<g><path style="opacity:1" fill="#343371" d="M 342.5,113.5 C 356.563,119.634 361.563,130.301 357.5,145.5C 368.505,145.333 379.505,145.5 390.5,146C 398.164,148.998 402.997,154.498 405,162.5C 405.5,169.492 405.666,176.492 405.5,183.5C 405.5,213.5 405.5,243.5 405.5,273.5C 405.5,291.5 405.5,309.5 405.5,327.5C 405.5,349.833 405.5,372.167 405.5,394.5C 406.658,404.043 404.324,412.543 398.5,420C 395.446,422.194 392.112,423.861 388.5,425C 326.833,425.667 265.167,425.667 203.5,425C 190.553,419.081 185.219,408.914 187.5,394.5C 187.5,387.167 187.5,379.833 187.5,372.5C 165.09,369.654 142.757,366.154 120.5,362C 113.572,359.406 109.072,354.573 107,347.5C 106.335,340.805 106.502,334.138 107.5,327.5C 110.715,309.545 113.715,291.545 116.5,273.5C 119.6,255.565 122.267,237.565 124.5,219.5C 127.143,207.641 129.143,195.641 130.5,183.5C 134.41,161.231 138.076,138.898 141.5,116.5C 142.439,111.197 143.273,105.863 144,100.5C 147.611,91.3672 154.277,86.3672 164,85.5C 223.494,94.9571 282.994,104.29 342.5,113.5 Z"/></g>
<g><path style="opacity:1" fill="#dbdbed" d="M 183.5,95.5 C 179.086,98.4242 175.92,102.424 174,107.5C 161.794,184.864 149.46,262.197 137,339.5C 135.755,345.706 136.588,351.539 139.5,357C 138.552,357.483 137.552,357.649 136.5,357.5C 129.147,357.999 122.48,356.166 116.5,352C 114.18,348.863 112.847,345.363 112.5,341.5C 124.806,262.469 137.306,183.469 150,104.5C 153.158,94.3337 159.991,90.5004 170.5,93C 174.853,93.8362 179.187,94.6695 183.5,95.5 Z"/></g>
<g><path style="opacity:1" fill="#d3d5ea" d="M 183.5,95.5 C 236.161,103.732 288.827,111.899 341.5,120C 349.43,123.695 352.764,129.862 351.5,138.5C 301.832,138.333 252.166,138.5 202.5,139C 192.087,141.781 185.254,148.281 182,158.5C 182.164,227.507 181.331,296.174 179.5,364.5C 164.922,362.891 150.589,360.557 136.5,357.5C 137.552,357.649 138.552,357.483 139.5,357C 136.588,351.539 135.755,345.706 137,339.5C 149.46,262.197 161.794,184.864 174,107.5C 175.92,102.424 179.086,98.4242 183.5,95.5 Z"/></g>
<g><path style="opacity:0.991" fill="#e9f0f6" d="M 118.5,115.5 C 125.982,116.492 133.648,116.825 141.5,116.5C 138.076,138.898 134.41,161.231 130.5,183.5C 100.167,183.5 69.8333,183.5 39.5,183.5C 43.2964,179.202 47.2964,175.036 51.5,171C 63.345,162.577 75.0117,153.91 86.5,145C 97.0367,134.961 107.703,125.127 118.5,115.5 Z"/></g>
<g><path style="opacity:0.994" fill="#eaf0f6" d="M 342.5,113.5 C 367.167,113.5 391.833,113.5 416.5,113.5C 434.896,134.577 450.563,157.577 463.5,182.5C 444.341,183.497 425.007,183.83 405.5,183.5C 405.666,176.492 405.5,169.492 405,162.5C 402.997,154.498 398.164,148.998 390.5,146C 379.505,145.5 368.505,145.333 357.5,145.5C 361.563,130.301 356.563,119.634 342.5,113.5 Z"/></g>
<g><path style="opacity:1" fill="#bbbdd1" d="M 351.5,138.5 C 350.781,140.764 350.448,143.097 350.5,145.5C 301.166,145.333 251.832,145.5 202.5,146C 195.148,148.847 190.481,154.014 188.5,161.5C 187.501,229.331 187.167,297.331 187.5,365.5C 186.5,365.5 185.5,365.5 184.5,365.5C 182.585,365.784 180.919,365.451 179.5,364.5C 181.331,296.174 182.164,227.507 182,158.5C 185.254,148.281 192.087,141.781 202.5,139C 252.166,138.5 301.832,138.333 351.5,138.5 Z"/></g>
<g><path style="opacity:1" fill="#fbfbfd" d="M 205.5,151.5 C 266.168,151.333 326.834,151.5 387.5,152C 391.342,153.668 394.509,156.168 397,159.5C 398.658,242.11 398.992,324.777 398,407.5C 396.594,412.573 393.428,416.073 388.5,418C 326.833,418.667 265.167,418.667 203.5,418C 199.612,415.778 196.779,412.612 195,408.5C 194.333,326.167 194.333,243.833 195,161.5C 197.106,156.557 200.606,153.224 205.5,151.5 Z"/></g>
<g><path style="opacity:1" fill="#57578a" d="M 188.5,161.5 C 188.5,229.833 188.5,298.167 188.5,366.5C 186.901,366.768 185.568,366.434 184.5,365.5C 185.5,365.5 186.5,365.5 187.5,365.5C 187.167,297.331 187.501,229.331 188.5,161.5 Z"/></g>
<g><path style="opacity:1" fill="#363370" d="M 285.5,180.5 C 292.508,180.334 299.508,180.5 306.5,181C 309.937,182.105 312.437,184.272 314,187.5C 314.499,192.823 314.666,198.156 314.5,203.5C 320.593,203.139 326.593,203.639 332.5,205C 334.049,206.214 335.215,207.714 336,209.5C 336.667,217.5 336.667,225.5 336,233.5C 334.833,235.333 333.333,236.833 331.5,238C 325.843,238.499 320.176,238.666 314.5,238.5C 314.666,243.844 314.499,249.177 314,254.5C 313.214,257.583 311.381,259.749 308.5,261C 300.5,261.667 292.5,261.667 284.5,261C 281.619,259.749 279.786,257.583 279,254.5C 278.501,249.511 278.334,244.511 278.5,239.5C 273.489,239.666 268.489,239.499 263.5,239C 256.278,235.211 253.611,229.211 255.5,221C 254.361,214.655 256.027,209.322 260.5,205C 266.379,203.59 272.379,203.09 278.5,203.5C 278.334,198.156 278.501,192.823 279,187.5C 280.694,184.642 282.861,182.309 285.5,180.5 Z"/></g>
<g><path style="opacity:0.997" fill="#e5eef5" d="M 39.5,183.5 C 69.8333,183.5 100.167,183.5 130.5,183.5C 129.143,195.641 127.143,207.641 124.5,219.5C 88.3295,219.832 52.3295,219.498 16.5,218.5C 21.9159,205.33 29.5825,193.663 39.5,183.5 Z"/></g>
<g><path style="opacity:1" fill="#f35666" d="M 286.5,187.5 C 293.226,187.205 299.892,187.538 306.5,188.5C 307.331,195.142 307.831,201.809 308,208.5C 308.5,209 309,209.5 309.5,210C 316.414,210.186 323.247,210.686 330,211.5C 330.667,217.833 330.667,224.167 330,230.5C 329.5,231 329,231.5 328.5,232C 321.833,232.333 315.167,232.667 308.5,233C 307.686,239.753 307.186,246.586 307,253.5C 306.5,254 306,254.5 305.5,255C 299.5,255.667 293.5,255.667 287.5,255C 287,254.5 286.5,254 286,253.5C 285.667,247.167 285.333,240.833 285,234.5C 284.5,234 284,233.5 283.5,233C 277.167,232.667 270.833,232.333 264.5,232C 264,231.5 263.5,231 263,230.5C 262.333,224.167 262.333,217.833 263,211.5C 269.753,210.686 276.586,210.186 283.5,210C 284,209.5 284.5,209 285,208.5C 285.203,201.421 285.703,194.421 286.5,187.5 Z"/></g>
<g><path style="opacity:0.997" fill="#e1ebf4" d="M 16.5,218.5 C 52.3295,219.498 88.3295,219.832 124.5,219.5C 122.267,237.565 119.6,255.565 116.5,273.5C 79.5,273.5 42.5,273.5 5.5,273.5C 3.96684,253.991 7.63351,235.657 16.5,218.5 Z"/></g>
<g><path style="opacity:0.998" fill="#e2ecf4" d="M 463.5,182.5 C 480.7,210.746 493.033,241.08 500.5,273.5C 468.833,273.5 437.167,273.5 405.5,273.5C 405.5,243.5 405.5,213.5 405.5,183.5C 425.007,183.83 444.341,183.497 463.5,182.5 Z"/></g>
<g><path style="opacity:0.998" fill="#dce8f2" d="M 5.5,273.5 C 42.5,273.5 79.5,273.5 116.5,273.5C 113.715,291.545 110.715,309.545 107.5,327.5C 78.6618,327.169 49.9951,327.502 21.5,328.5C 11.7428,311.551 6.4095,293.217 5.5,273.5 Z"/></g>
<g><path style="opacity:0.998" fill="#dce8f2" d="M 405.5,273.5 C 437.167,273.5 468.833,273.5 500.5,273.5C 504.873,291.197 506.54,309.197 505.5,327.5C 472.167,327.5 438.833,327.5 405.5,327.5C 405.5,309.5 405.5,291.5 405.5,273.5 Z"/></g>
<g><path style="opacity:1" fill="#3c3a76" d="M 211.5,285.5 C 216.179,285.334 220.845,285.501 225.5,286C 228.167,288 228.167,290 225.5,292C 220.833,292.667 216.167,292.667 211.5,292C 208.939,289.844 208.939,287.677 211.5,285.5 Z"/></g>
<g><path style="opacity:1" fill="#393874" d="M 243.5,285.5 C 289.501,285.333 335.501,285.5 381.5,286C 384.167,288 384.167,290 381.5,292C 335.5,292.667 289.5,292.667 243.5,292C 240.939,289.844 240.939,287.677 243.5,285.5 Z"/></g>
<g><path style="opacity:1" fill="#343371" d="M 210.5,318.5 C 215.844,318.334 221.177,318.501 226.5,319C 227.86,320.938 227.527,322.604 225.5,324C 220.833,324.667 216.167,324.667 211.5,324C 209.19,322.541 208.857,320.708 210.5,318.5 Z"/></g>
<g><path style="opacity:1" fill="#2e2e6d" d="M 242.5,318.5 C 289.168,318.333 335.835,318.5 382.5,319C 383.86,320.938 383.527,322.604 381.5,324C 335.5,324.667 289.5,324.667 243.5,324C 241.19,322.541 240.857,320.708 242.5,318.5 Z"/></g>
<g><path style="opacity:0.996" fill="#d6e5f0" d="M 107.5,327.5 C 106.502,334.138 106.335,340.805 107,347.5C 109.072,354.573 113.572,359.406 120.5,362C 142.757,366.154 165.09,369.654 187.5,372.5C 187.5,379.833 187.5,387.167 187.5,394.5C 152.833,394.5 118.167,394.5 83.5,394.5C 56.969,377.97 36.3023,355.97 21.5,328.5C 49.9951,327.502 78.6618,327.169 107.5,327.5 Z"/></g>
<g><path style="opacity:0.996" fill="#d7e5f1" d="M 405.5,327.5 C 438.833,327.5 472.167,327.5 505.5,327.5C 505.137,351.618 499.471,374.285 488.5,395.5C 461.005,394.502 433.338,394.169 405.5,394.5C 405.5,372.167 405.5,349.833 405.5,327.5 Z"/></g>
<g><path style="opacity:1" fill="#3a3975" d="M 211.5,350.5 C 216.179,350.334 220.845,350.501 225.5,351C 228.167,353 228.167,355 225.5,357C 220.833,357.667 216.167,357.667 211.5,357C 208.939,354.844 208.939,352.677 211.5,350.5 Z"/></g>
<g><path style="opacity:1" fill="#373673" d="M 243.5,350.5 C 289.501,350.333 335.501,350.5 381.5,351C 384.167,353 384.167,355 381.5,357C 335.5,357.667 289.5,357.667 243.5,357C 240.939,354.844 240.939,352.677 243.5,350.5 Z"/></g>
<g><path style="opacity:1" fill="#373673" d="M 210.5,383.5 C 215.844,383.334 221.177,383.501 226.5,384C 227.833,385.667 227.833,387.333 226.5,389C 221.167,389.667 215.833,389.667 210.5,389C 209.248,387.172 209.248,385.339 210.5,383.5 Z"/></g>
<g><path style="opacity:1" fill="#2f2e6d" d="M 242.5,383.5 C 288.835,383.333 335.168,383.5 381.5,384C 383.527,385.396 383.86,387.062 382.5,389C 335.833,389.667 289.167,389.667 242.5,389C 241.248,387.172 241.248,385.339 242.5,383.5 Z"/></g>
<g><path style="opacity:0.994" fill="#d0e1ef" d="M 83.5,394.5 C 118.167,394.5 152.833,394.5 187.5,394.5C 185.219,408.914 190.553,419.081 203.5,425C 265.167,425.667 326.833,425.667 388.5,425C 392.112,423.861 395.446,422.194 398.5,420C 404.324,412.543 406.658,404.043 405.5,394.5C 433.338,394.169 461.005,394.502 488.5,395.5C 472.176,428.188 446.843,451.021 412.5,464C 371.047,478.531 328.713,481.531 285.5,473C 221.662,458.722 160.662,436.722 102.5,407C 95.7589,403.307 89.4256,399.14 83.5,394.5 Z"/></g>
</svg>
